/* XPM */
static char *result[] = {
/* columns rows colors chars-per-pixel */
"64 64 76 1 ",
"  c #080101",
". c #0F0909",
"X c #120C0C",
"o c #171212",
"O c #191313",
"+ c #1E1919",
"@ c #241F1F",
"# c #262222",
"$ c #292525",
"% c #2F2C2C",
"& c #312D2D",
"* c #33322F",
"= c #3C362B",
"- c #3E382A",
"; c #323131",
": c #383636",
"> c #3C3A3A",
", c #453B27",
"< c #4B3E26",
"1 c #433A29",
"2 c #59451D",
"3 c #5E491D",
"4 c #76530C",
"5 c #7D5609",
"6 c #7F580A",
"7 c #644A16",
"8 c #6A4D13",
"9 c #644C1C",
"0 c #6E5118",
"q c #745415",
"w c #795713",
"e c #7B5812",
"r c #73561B",
"t c #534323",
"y c #584621",
"u c #46433E",
"i c #574B34",
"p c #5E523A",
"a c #6D5525",
"s c #62512E",
"d c #6A552A",
"f c #645434",
"g c #6A5836",
"h c #635438",
"j c #414141",
"k c #4E4E4E",
"l c #565146",
"z c #5C5341",
"x c #51504E",
"c c #535353",
"v c #5C5C5C",
"b c #646464",
"n c #6D6C6C",
"m c #747474",
"M c #7D7D7D",
"N c #865901",
"B c #8C5E01",
"V c #845C0D",
"C c #885F0D",
"Z c #835D12",
"A c #8F6001",
"S c #8C610B",
"D c #916101",
"F c #986601",
"G c #9C6901",
"H c #926409",
"J c #A36D01",
"K c #858484",
"L c #8C8C8C",
"P c #949494",
"I c #9D9D9D",
"U c #A5A5A5",
"Y c #AAAAAA",
"T c gray69",
"R c #C1C1C1",
"E c None",
/* pixels */
"EEEEEEEEEEEEEEEEEEkxkxkkkkkkckcEEEEEEEEEEEEEEEEEEEEEEEEEEEEEEEEE",
"EEEEEEEEEEEEEEEckmPcmIIIIIIMkEEkccEEEEEEEEEEEEEEEEEEEEEEEEEEEEEE",
"EEEEEEEEEEEEkcnPEPUcmUYUYEUMkEILLKkcEEEEEEEEEEEEEEEEEEEEEEEEEEEE",
"EEEEEEEEEccnKEbnEEUxmYEYUEEEcEEEbbEEEkcEEEEEEEEEEEEEEEEEEEEEEEEE",
"EEEEEEEEckxKUYPMvvvxcncbnccckcccEEEEEEcccEEEEEEEEEEEEEEEEEEEEEEE",
"EEEEEEcnbEEMUUKvj+..... . . . #;&;UEKcEEEEEEEEEEEEEESSSSSSEEEEEE",
"EEEEEEnLEEcbKK                    nMnkEEEcEEEEEEEEENNDAAANSEEEEE",
"EEEEnnKEEEE&XX                     X;EEEEEvcEEEheBDNAJJJJBNNEEEE",
"EEExKUvLP&%OEE                      X##&EccEllpNNAGAAJJJJBNBNNNE",
"EEcEKPPbO                               XklfNBBNGJJAAJJJJBDJJFNN",
"kEExcc>     EEEEE                        kdNJJGNGJJAAJJJJBAJJFNN",
"cEEEEE&                                  cdBJJGNGJGAAJJJJBAJJFNN",
"kEEEEE#                                  xdBGJGNGJJAAGJJJBAJJFNN",
"kkkEEEk                                  cdBJJGNGJJBAJJJJAAJJFNN",
"kcEckck                                  cdBJJGNGJJBAJJJJBAJJFNN",
"kEEmncj                                  kdBGJGBGJJBAJJJJNAJJFNN",
"kvEEEEk                                  xdBJJGNGJJBBJJJJBAJJFNN",
"kcEEEEj                                  xdBJJGNGJJBAJJJJBDJJFNN",
"kkkcckk                                  xf5JJGNGJJBBJJJJBDJJFNN",
"kvEUUEk                                  xj,SGGNGJJBDJJJJBDJJFNN",
"cmUEUUj                                  cj;=qGNGJJBBJJJJBDJJFNN",
"cmUUUIk                                  kj;;;,NFJJBBJJJJBDJJFNN",
"kmUvvvk                                  xj-ZSCNGJJBAJJJJBAJGFNN",
"ccbEEEj                                  xi5GJGNGJJBBJJJJBDJJFNN",
"kvKYEEk                                  xdBGJGBGJGAAJJJJBAJJFNN",
"xmUUYEj                                  kdBJJGNFJJAAJJJJBAJJFNN",
"xvKKPIk                                  xdBGJGNGJJAAJJJJBAJGFNN",
"kkcknnk                                  kdBJJGBGJGAAJJJJBAJJFNN",
"xcEEbcj                                  xdBGJGNGJJAAJJJGBAJJFNN",
"knUUYUk                                  kdBJJGBFJGAAJJJJAFJJGNN",
"knUUUIk                                  xdAJJGNGJJAAGJJJAFGGFNN",
"kcxcmEj                                  xdAGJFBGJJAAJJJGAAJJFNN",
"xcEEvcj                                  kdBGJGBGJJBAJJJJBBJJFNN",
"kbEEEEk                                  kdBJJGNGJJBBJJZ==9JJFNN",
"xvEEEEk                                  cdBJJGNGJJBAJJGe1=9FFNN",
"kvbvcck                                  xdBGJGBGJJBBJJJJ,<ZGFNN",
"xkcvcck                                  xdBJJGNGJJBBJJHq=yJJGNN",
"kbYYEEj                                  xdBJJGNGJJBBJe0923wGHNN",
"cbUUEEj                                  xdBJJGNGJJBBJ<tJN81SFNN",
"kEEKEEk                                  xdBJJGNGJJBBJ9yC47yHFNN",
"xcEckcj                                  ksNGJGBGJGBAJGS1=yJJGNN",
"kkcPEEk                                  kutGJGBGJJAAJJGF5NJJGNN",
"cEEYYEk                                  kj;;0GNGJJAAGJJJBBJJFNN",
"kEEEEEj                                  kj;;125GJJAAJJJJBDJJFNN",
"kkcvEEk                                  xj1ZSSNGJJAAJJJJBDJJFNN",
"kcEvvEj                                  ki0GGGNGGJAAJJJJBDJJFNN",
"kcEUKEk                                  kdNJJGNGJJAAGJJJBAJGFNN",
"cnUYEEk                                  xdAJJGBGJJBAJJJJBAJJFNN",
"kbLEEEk                                  xdBJJJNGJJBBJJJJBAJJFNN",
"kcvvvvj   XXX@$$$$$$$$$$%$$$###$$$$$     xdBJJGNFJJBAJJJJBDJJFNN",
"cmUIIPk;;:cccmMLLLLLPIIIIIPMcvvnnmmKOOoX.kdBJJGNGJJBBJJJJBDJJFNN",
"cmUUUUkkcxkbPLPLPPYYYUPLLYYILPMkkvmLKmccbxdBGJJNGJJBDJJJJBDJJFNN",
"cccUUIkLIUULvvcvvvvvvvvmLLIIIPLKKmccbmcbmcdBJJFNGJJBBJJJJBDJJFNN",
"kkEbvvcLYRYYTIPPPPPPIPPmvvvbbvvvvccvvcccbxdBJJGNGJJBDJJJJBDJJFNN",
"kmULLKkPUTYYTYYEYYEYUUYPLKMEEEEEEEEcckkcccdBJJJNGJJBBJJJJBDJGFNN",
"cbEUUUkbnnnnnnbcnbcnnnnnnnbvvcccckkckckxkkdNDFGNFJJBBJJJJBAJJFNN",
"ccEKMMkkxxkkcckckkkkkxkckckckckckkckckckccpdaZDNGJJBAJJJJBAJJFBN",
"cccccvcvvcvcccccvccvccvccccccccccccccccccccccgrNDFJBAJJJGBAJJF5N",
"EEEEEEEEEEEEEEEEEEEEEEEEEEEEEEEEEEEEEEEEEEEEEEzweVGBBJJJJAAJJFNN",
"EEEEEEEEEEEEEEEEEEEEEEEEEEEEEEEEEEEEEEEEEEEEEEEvkpeeVGGGJAAJJFNN",
"EEEEEEEEEEEEEEEEEEEEEEEEEEEEEEEEEEEEEEEEEEEEEEEEcxckpwwCGBDJJFNN",
"EEEEEEEEEEEEEEEEEEEEEEEEEEEEEEEEEEEEEEEEEEEEEEEEEEEEExcp66BGGFNN",
"EEEEEEEEEEEEEEEEEEEEEEEEEEEEEEEEEEEEEEEEEEEEEEEEEEEEEEEEllfBBNNN",
"EEEEEEEEEEEEEEEEEEEEEEEEEEEEEEEEEEEEEEEEEEEEEEEEEEEEEEEEEEExxxxx"
};
