/* XPM */
static char *result[] = {
/* columns rows colors chars-per-pixel */
"60 60 128 2 ",
"   c #37342D",
".  c #3B362C",
"X  c #393733",
"o  c #3E3931",
"O  c #3F3F3D",
"+  c #473C27",
"@  c #4A3D24",
"#  c #433A2A",
"$  c #413F3C",
"%  c #55431E",
"&  c #5B471E",
"*  c #5F481B",
"=  c #6E4F0F",
"-  c #74520E",
";  c #7B560D",
":  c #7E590F",
">  c #6A4D14",
",  c #644B1B",
"<  c #694E19",
"1  c #6E5117",
"2  c #6F521A",
"3  c #745414",
"4  c #795612",
"5  c #7C5A14",
"6  c #75571A",
"7  c #76591D",
"8  c #7B5B1A",
"9  c #4F4229",
"0  c #534322",
"q  c #594725",
"w  c #5F4A22",
"e  c #5C4D2F",
"r  c #4F4635",
"t  c #44413B",
"y  c #4B4538",
"u  c #524833",
"i  c #6D5526",
"p  c #63502C",
"a  c #6B562B",
"s  c #6E592D",
"d  c #725723",
"f  c #725926",
"g  c #7A5C21",
"h  c #715B2D",
"j  c #695733",
"k  c #6B5935",
"l  c #67593E",
"z  c #695A3C",
"x  c #735E32",
"c  c #715F3B",
"v  c #7A602B",
"b  c #766134",
"n  c #796334",
"m  c #74623E",
"M  c #7C663A",
"N  c #4C4B4A",
"B  c #5E5545",
"V  c #56524B",
"C  c #555555",
"Z  c #5C5C5C",
"A  c #655940",
"S  c #6B5D42",
"D  c #635C4D",
"F  c #645E53",
"G  c #6F6045",
"H  c #6F634D",
"J  c #736344",
"K  c #796745",
"L  c #74654A",
"P  c #7B6A49",
"I  c #676051",
"U  c #6B6455",
"Y  c #64605A",
"T  c #6D665A",
"R  c #6D685F",
"E  c #706550",
"W  c #726956",
"Q  c #796D56",
"!  c #736C5D",
"~  c #786E5A",
"^  c #646363",
"/  c #696763",
"(  c #6D6A63",
")  c #6C6C6C",
"_  c #746E63",
"`  c #726F69",
"'  c #777061",
"]  c #7A7264",
"[  c #74726C",
"{  c #7A756B",
"}  c #7D786F",
"|  c #747474",
" . c #7A7771",
".. c #7F7B73",
"X. c #7C7B7B",
"o. c #855903",
"O. c #8D5E01",
"+. c #845C0C",
"@. c #895F0B",
"#. c #835D11",
"$. c #8F6001",
"%. c #8F6208",
"&. c #936201",
"*. c #996601",
"=. c #9D6A01",
"-. c #90640A",
";. c #8A6312",
":. c #84621D",
">. c #A26C01",
",. c #806226",
"<. c #857E6F",
"1. c #817C72",
"2. c #837F78",
"3. c #8D8677",
"4. c #84827C",
"5. c #838383",
"6. c #888681",
"7. c #8E8A83",
"8. c #8B8B8B",
"9. c #939393",
"0. c #9C9C9C",
"q. c #A3A3A3",
"w. c #ABABAB",
"e. c #B3B3B3",
"r. c #BBBBBB",
"t. c #C1C1C1",
"y. c #CBCBCB",
"u. c None",
/* pixels */
"u.u.u.u.u.u.u.u.u.u.u.u.u.u.u.u.u.u.u.u.u.u.Z C C C Z Z Z ^ Z Z Z Z C C C Z u.u.u.u.u.u.u.u.u.u.u.u.u.u.u.u.u.u.u.u.u.u.",
"u.u.u.u.u.u.u.u.u.u.u.u.u.u.u.u.u.u.^ Z Z ) X.| ^ ^ X.8.8.8.8.8.8.5.) ) | | | ) ^ ^ u.u.u.u.u.u.u.u.u.u.u.u.u.u.u.u.u.u.",
"u.u.u.u.u.u.u.u.u.u.u.u.u.u.u.u.u.) | | X.5.8.8.) | 9.e.e.e.w.w.q.9.| | X.9.0.9.5.X.X.u.u.u.u.u.u.u.u.u.u.u.u.u.u.u.u.u.",
"u.u.u.u.u.u.u.u.u.u.u.u.u.u.| X.X.X.X.8.0.0.9.5.) | 0.e.r.r.e.w.w.0.X.| X.9.r.r.0.9.9.8.X.X.u.u.u.u.u.u.u.u.u.u.u.u.u.u.",
"u.u.u.u.u.u.u.u.u.u.C C Z ) 9.q.w.0.5.X.5.5.2.| ^ / 6.9.0.0.0.0.0.8.` / [ 4.9.0.8.8.e.r.w.9.5.) Z C u.u.u.u.u.u.u.u.u.u.",
"u.u.u.u.u.u.u.u.X.X.X.X.X.5.0.w.w.0.8.| ^ F S k j k c m J m m m c c k k k S F / | 5.0.q.q.0.9.5.| | | | u.u.u.u.u.u.u.u.",
"u.u.u.u.u.u.u.| 5.9.0.0.8.8.8.8.9.6.' H A j 7 #.5 5 5 #.#.#.+.#.#.#.#.#.#.7 a l G ~ 2.8.8.8.8.8.9.0.9.8.X.u.u.u.u.u.u.u.",
"u.u.u.u.u.| X.X.8.9.0.0.8...] ' ~ P n 8 8 #.-.&.O.O.*.=.*.*.*.*.*.&.O.O.$.%.#.#.g v K Q ~ ]  .5.9.q.q.0.X.| | u.u.u.u.u.",
"u.u.u.u.| 5.9.9.8.5.5...] U m f 7 #.@.&.*.*.=.*.O.&.=.>.>.>.>.>.>.>.&.$.*.*.*.*.*.%.#.8 g x E _ ..6.9.9.5.5.X.X.u.u.u.u.",
"u.u.Z ) 5.9.q.0.8.{ W m h 8 ;.@.o.O.*.>.>.>.=.*.O.O.>.>.>.>.>.>.>.*.&.&.*.*.>.>.>.*.O.o.@.@.8 d x L [ X.8.0.q.0.5.X.u.u.",
"Z ) X.X.| ) | ` W K ,.;.;.-.*.*.O.$.*.=.>.>.=.*.$.$.=.>.>.>.>.>.>.>.&.&.*.*.>.>.>.*.$.O.*.=.-.-.;.:.n L ( | | X.5.X.| ) ",
"Z ) 5.8.5.| | ! S h #.&.=.>.>.=.$.$.*.=.>.>.=.*.$.$.=.>.>.>.>.>.>.>.&.&.*.*.>.>.>.*.O.O.=.>.>.=.*.@.8 x U ) X.5.9.8.| ) ",
"^ | 0.q.q.9.8.{ S d @.*.=.>.>.=.$.$.=.>.>.>.=.*.O.O.>.>.>.>.>.>.>.>.&.&.*.*.*.>.>.*.O.O.=.>.>.>.=.%.5 x ! 5.9.q.q.9.X.) ",
"^ X.q.e.w.q.9.4.J d +.*.=.>.>.=.$.$.*.=.>.>.>.*.$.&.>.>.>.>.>.>.>.*.&.$.*.*.>.>.>.*.O.O.=.>.>.>.*.%.5 x ' 8.w.r.w.9.| / ",
"Z ) 8.0.q.q.0.7.L d @.*.>.>.>.=.&.O.*.=.>.>.>.*.$.$.>.>.>.>.>.>.>.>.*.$.*.*.>.>.>.>.$.&.=.>.>.=.=.-.5 x ! X.9.9.5.| Z C ",
"C Z ) X.X.X.X.[ S d @.*.=.>.>.=.O.O.*.>.>.>.=.*.$.$.>.>.>.>.>.>.>.>.$.$.*.*.>.>.>.*.O.O.=.>.>.>.*.-.5 h U ) | X.5.5.) ^ ",
"C ^ | 5.5.5.| ( l d ;.*.>.>.>.=.&.&.*.=.>.>.=.*.$.$.=.>.>.>.>.>.>.=.&.$.*.=.*.>.>.*.O.O.=.>.>.>.*.%.5 x U | 5.8.0.9.X.) ",
"Z ) 8.0.q.0.9...G d @.*.=.>.>.=.O.O.*.=.>.>.=.*.$.$.=.>.>.>.>.>.>.=.&.&.&.=.>.>.>.*.O.O.*.>.>.>.*.%.5 x _ 5.0.q.q.9.| ) ",
"C ^ | 5.0.0.9.1.G d +.*.>.>.>.=.&.$.*.>.>.>.=.*.$.O.=.>.>.>.>.>.>.>.&.$.*.=.>.>.>.*.O.&.>.>.>.>.*.-.5 x I ) X.8.5.X.) Z ",
"C Z | X.5.5.| ( B p 5 %.*.>.>.=.$.$.*.=.>.>.>.*.$.&.=.>.>.>.>.>.>.=.*.&.*.*.>.>.>.>.O.O.*.>.>.*.*.-.5 h I ) X.5.5.5.) ^ ",
"^ ) 8.9.8.X.| / V r q , 3 4 4 ; ; O.*.=.>.>.=.*.$.$.>.>.>.>.>.>.>.>.&.&.*.*.>.>.>.*.O.$.>.>.>.>.=.%.5 h ! X.9.0.w.0.X.) ",
"^ | 0.e.q.9.5.| C O # . + @ + % = o.*.=.>.>.>.*.$.&.>.>.>.>.>.>.>.=.&.$.&.*.>.>.>.*.O.$.*.>.>.>.*.-.5 b ' 8.q.r.r.q.5.) ",
"Z | 0.e.r.w.8.| C O X   . . . 9 > o.&.=.>.>.=.*.$.&.>.>.>.>.>.>.>.=.&.&.*.*.=.>.>.*.O.O.>.>.>.>.=.%.5 x ! 5.0.w.w.0.X.) ",
"Z | 8.0.0.8.| Z N y q > 5 @.+.#.o.O.*.=.=.>.=.*.O.O.>.>.>.>.>.>.>.>.&.$.*.=.>.>.>.*.O.O.*.>.>.>.*.%.5 s Z ^ ^ | 5.5.| ) ",
"C Z ) | | X.| ) B p 6 +.*.=.=.*.O.O.*.>.>.>.=.*.$.&.=.>.>.>.>.>.>.=.&.&.*.*.>.>.=.*.$.$.=.>.>.>.*.-.5 x U | 8.9.8.X.^ Z ",
"Z Z | X.5.5.5.} S i +.*.=.>.>.=.$.O.*.=.>.>.>.*.$.O.>.>.>.>.>.>.>.>.&.&.&.=.=.>.>.*.$.$.=.>.>.=.*.-.5 b { 9.w.w.0.5.) Z ",
"Z | 8.q.q.q.9.1.G d +.*.=.>.>.=.$.$.*.>.>.>.=.*.$.$.=.>.>.>.>.>.>.=.&.&.*.*.>.>.>.*.$.$.*.>.>.>.=.%.5 n 3.9.w.e.w.9.X.) ",
"Z ) 8.q.q.0.8.1.G d @.*.>.>.>.=.$.$.&.=.>.>.=.*.$.$.=.>.>.>.>.>.>.=.&.&.*.=.>.>.>.*.$.&.=.>.>.>.*.-.5 b ' 6.0.0.9.8.| ^ ",
"Z / X.8.9.9.8...J d @.*.>.>.>.=.$.$.=.>.>.>.=.*.O.O.>.>.>.>.>.>.>.=.&.&.*.=.=.>.>.*.O.$.*.>.>.=.*.%.5 x T X.5.5.X.| ^ Z ",
"C Z | | X.2.X.[ S d @.*.=.>.>.=.$.$.*.=.>.>.>.*.$.&.>.>.>.>.>.>.>.>.&.&.&.*.>.=.-.@.; ; @.%.=.>.*.%.5 s I ) 8.9.9.8.| ^ ",
"C ^ X.8.5.X.| _ S d @.*.>.>.>.=.&.O.*.=.>.>.>.*.$.$.>.>.>.>.>.>.>.=.&.$.*.=.>.*.@.> , * 3 ;.*.=.*.&.5 x U | 8.q.w.0.X.) ",
"Z | 0.w.q.9.X.( l d @.*.=.>.>.=.O.O.*.>.>.>.=.*.$.$.>.>.>.>.>.>.>.>.&.-.*.*.>.*.: , @ @ < ;.*.>.*.%.5 b ] 5.0.q.0.9.| ) ",
"Z | 0.e.w.0.9.1.G d @.*.>.>.>.=.$.$.=.>.>.>.=.*.O.&.=.>.>.>.>.>.>.>.*.&.&.=.>.>.*.#.@ % @.>.>.>.*.-.5 b ] 5.8.8.5.| / ^ ",
"Z Z | X.X.| | Y A d @.&.=.>.>.=.$.$.*.=.>.>.=.*.O.$.=.>.>.>.>.>.>.>.&.&.*.=.>.&.4 w # + < #.&.=.*.%.5 h I ) X.5.5.X./ ^ ",
"C ^ | | X.| | T S d @.*.>.>.>.=.$.$.*.=.>.>.=.*.O.O.=.>.>.>.>.>.>.=.*.$.*.$.@.4 3 , % % < 3 4 @.&.%.5 s I ) 5.8.9.8.| ^ ",
"Z ^ 5.8.9.8.2.[ S d @.*.=.>.>.=.$.$.*.=.>.>.=.*.O.O.>.>.>.>.>.>.>.>.&.&.*.@.< , 3 4 - ; 4 3 , < @.%.5 x ! X.9.0.q.0.X.) ",
"Z | 8.0.q.0.9.2.G 7 ;.*.>.>.>.=.$.$.*.>.>.>.>.*.$.&.>.>.>.>.>.>.>.>.&.&.*.+., 0 4 @.o.o.@.4 q , +.%.5 x _ 5.9.0.q.9.X.) ",
"C Z ) 5.0.w.0.7.L i @.*.=.>.>.=.$.$.*.>.>.>.=.*.$.O.*.>.>.>.>.>.>.=.&.$.&.*.@.#.< , @ @ & > #.@.*.%.5 s D ^ ) ) ) ^ Z Z ",
"C ^ X.X.X.X.X.` S d +.*.>.>.>.=.$.$.*.=.>.>.=.*.$.$.>.>.>.>.>.>.>.=.&.&.*.*.=.&.@.; - 3 ; @.&.=.*.%.5 x T | 5.8.8.5.) ^ ",
"Z ) 8.9.8.X.| ( A d %.*.=.>.>.=.$.O.*.=.>.>.=.*.$.$.>.>.>.>.>.>.>.=.&.&.*.*.>.>.=.*.O.o.*.>.>.>.*.%.5 x ' 6.0.q.q.9.X.) ",
"Z | 0.w.q.0.8. .G d @.*.=.>.>.=.$.$.*.>.>.>.>.*.$.&.>.>.>.>.>.>.>.>.*.$.*.*.*.>.>.*.O.$.=.>.>.>.=.%.5 x _ 5.9.q.e.q.5.X.",
"/ X.q.e.w.9.5._ S d @.*.=.>.>.=.$.$.*.>.>.>.=.*.$.*.>.>.>.>.>.>.>.>.$.*.*.*.>.>.>.*.O.$.=.>.>.>.*.-.5 x U | 5.0.e.e.0.8.",
"Z ^ 5.8.8.X.` Y l p 5 %.*.>.>.=.$.$.*.=.>.>.=.*.$.$.>.>.>.>.>.>.>.*.$.$.*.*.>.>.>.*.O.$.=.>.>.>.*.-.5 s D / ) X.9.9.5.| ",
"C ^ | X.5.5.X.) V r , > 5 +.#.+.o.o.*.>.>.>.=.*.O.$.>.>.>.>.>.>.>.>.*.$.*.*.>.>.>.*.O.$.*.>.>.>.*.%.5 x ! | 8.8.8.5.| ^ ",
"Z ^ 5.8.8.9.8.| C t # + 0 0 0 , = o.*.=.>.>.>.*.$.$.>.>.>.>.>.>.>.*.&.$.*.*.>.>.>.*.O.$.=.>.>.>.*.%.5 b { 8.0.q.0.5.| ^ ",
"^ X.q.e.w.0.8.| C O X   . . . + > +.&.>.>.>.*.*.O.&.*.>.>.>.>.>.>.>.&.&.*.*.>.>.>.=.$.$.=.>.>.=.=.%.5 n 1.9.w.w.q.9.| ^ ",
"| 5.e.r.q.8.| Z N t 9 w 1 5 4 4 o.o.*.*.>.>.>.*.$.$.>.>.>.>.>.>.>.=.*.O.*.*.>.>.>.*.$.$.*.>.>.>.=.%.5 M 3.0.q.0.X.) ^ Z ",
"u.u.8.8.5.X.| / V e 1 : %.-.*.*.O.O.*.>.>.>.>.*.$.$.*.>.>.>.>.>.>.>.&.&.&.*.>.>.>.*.O.O.=.>.>.>.*.%.5 b ! X.8.8.5.| ) ^ ",
"u.u.5.8.5.5.5.{ S i 5 &.=.>.>.=.&.$.*.>.>.>.=.*.$.&.>.>.>.>.>.>.>.>.&.&.*.*.>.>.>.*.O.$.=.>.>.>.*.O.5 x T | 8.9.9.9.X./ ",
"u.u.0.0.0.0.8...G d @.*.=.>.>.=.$.$.*.=.>.>.=.*.O.$.*.>.>.>.>.>.>.*.&.&.&.=.>.>.>.*.O.$.=.>.>.>.*.-.5 x _ 5.0.w.w.w.u.u.",
"u.u.q.q.q.q.9.1.J d ;.*.=.>.>.=.&.$.*.=.>.>.=.*.$.$.>.>.>.>.>.>.>.=.&.&.*.*.>.>.>.*.O.$.=.>.>.=.=.-.5 x ' 8.q.r.e.e.u.u.",
"C Z ) 8.w.w.8.{ S i @.*.>.>.>.=.$.$.*.=.>.>.>.*.O.O.=.>.>.>.>.>.>.>.&.&.*.*.>.>.>.=.O.$.=.>.>.>.*.-.5 a D Z / ) ) / Z C ",
"^ ) X.5.5.X.| T l d %.*.>.>.>.=.&.$.*.=.>.=.=.*.$.$.=.>.>.>.>.>.>.*.$.*.&.*.>.>.>.*.O.$.=.>.>.=.*.%.5 x T | 2.5.5.5.) u.",
"/ X.q.q.9.5.| / A d +.*.=.>.>.=.$.$.*.>.>.>.>.*.$.$.=.>.>.>.>.>.>.>.*.$.*.*.>.>.>.=.O.O.=.>.>.>.=.%.5 x ' 5.0.q.q.q.u.u.",
"u.u.t.t.r.w.9...G d %.*.=.>.>.=.$.$.*.=.>.>.=.*.$.$.>.>.>.>.>.>.>.>.$.$.*.*.>.>.>.*.O.$.=.>.>.>.*.-.5 x _ 5.9.q.q.q.u.u.",
"u.u.e.r.y.r.9.{ S d +.*.>.>.>.*.&.$.*.=.>.>.=.*.$.&.>.>.>.>.>.>.>.>.*.O.*.*.>.>.>.*.$.O.=.>.>.>.*.%.5 x T | 5.8.0.0.u.u.",
"u.u.8.9.q.0.5.{ z d @.&.*.&.*.&.$.$.&.*.&.*.&.&.O.O.&.*.*.*.*.*.*.$.O.O.$.&.*.*.*.&.O.O.&.*.&.&.&.@.5 h U [ X.5.0.w.u.u.",
"u.u.5.8.8.9.9.8.~ 6 o.o.O.O.O.O.o.o.O.o.O.O.O.o.o.O.$.$.O.O.O.o.o.O.o.O.O.O.o.O.O.o.o.o.O.O.O.O.O.o.: P 4.8.9.0.w.e.u.u.",
"u.u.9.8.8.8.0.q.u.u.o.o.o.o.o.o.o.o.o.o.o.o.o.o.o.o.u.u.o.o.o.o.o.o.o.o.o.o.o.o.o.o.o.o.o.o.o.o.o.o.u.u.q.q.q.w.e.r.u.u.",
"u.u.u.u.u.u.u.u.u.u.u.u.u.u.u.u.u.u.u.u.u.u.u.u.u.u.u.u.u.u.u.u.u.u.u.u.u.u.u.u.u.u.u.u.u.u.u.u.u.u.u.u.u.u.u.u.u.u.u.u."
};
