/* XPM */
static char *result[] = {
/* columns rows colors chars-per-pixel */
"64 64 251 2 ",
"   c #040528",
".  c #050528",
"X  c #050629",
"o  c #070B2F",
"O  c #090F33",
"+  c #0B1237",
"@  c #0B143A",
"#  c #0C143A",
"$  c #0A173D",
"%  c #0B183F",
"&  c #0B193F",
"*  c #0D183E",
"=  c #0C183F",
"-  c #0E1A43",
";  c #0C1D44",
":  c #0C1E45",
">  c #0D1E45",
",  c #0D1E46",
"<  c #260F4D",
"1  c #0E234B",
"2  c #112144",
"3  c #12234B",
"4  c #13244D",
"5  c #14284A",
"6  c #152A4C",
"7  c #172D4F",
"8  c #112C56",
"9  c #112D56",
"0  c #112D57",
"q  c #182F55",
"w  c #172F59",
"e  c #182E5D",
"r  c #183152",
"t  c #193253",
"y  c #193354",
"u  c #13325C",
"i  c #13325D",
"p  c #17325D",
"a  c #19315B",
"s  c #1C3B5B",
"d  c #1E3D5E",
"f  c #1E3E5E",
"g  c #143661",
"h  c #143762",
"j  c #153762",
"k  c #163A66",
"l  c #1B3669",
"z  c #1A3D6A",
"x  c #1D3A6C",
"c  c #2E2962",
"v  c #26356A",
"b  c #26376C",
"n  c #313169",
"m  c #333A71",
"M  c #461555",
"N  c #481554",
"B  c #621958",
"V  c #6E1B5A",
"C  c #493569",
"Z  c #18416E",
"A  c #1F406C",
"S  c #194573",
"D  c #194674",
"F  c #1B4E7E",
"G  c #1C4F7E",
"H  c #1C4F7F",
"J  c #21436B",
"K  c #22476A",
"L  c #234B6B",
"P  c #244B6B",
"I  c #254D6D",
"U  c #254E6D",
"Y  c #214270",
"T  c #264173",
"R  c #214277",
"E  c #204876",
"W  c #244D76",
"Q  c #22447C",
"!  c #224A79",
"~  c #264979",
"^  c #264B7B",
"/  c #264E7D",
"(  c #275373",
")  c #295676",
"_  c #295777",
"`  c #285779",
"'  c #2D5F7E",
"]  c #2D607F",
"[  c #5A4978",
"{  c #9F2363",
"}  c #9D246D",
"|  c #AB2565",
" . c #A5256F",
".. c #BD2868",
"X. c #C72A6D",
"o. c #C52B77",
"O. c #CC2B70",
"+. c #D02C72",
"@. c #DD2F7E",
"#. c #E3307D",
"$. c #E5307E",
"%. c #1E5485",
"&. c #274D89",
"*. c #205180",
"=. c #20598A",
"-. c #275889",
";. c #275A8B",
":. c #2F6584",
">. c #2E6188",
",. c #2E608D",
"<. c #306685",
"1. c #31678F",
"2. c #236396",
"3. c #286295",
"4. c #2B6495",
"5. c #2D6D96",
"6. c #24679B",
"7. c #24689B",
"8. c #316692",
"9. c #336C97",
"0. c #346F95",
"q. c #347293",
"w. c #327498",
"e. c #387A98",
"r. c #397A98",
"t. c #266CA1",
"y. c #2A6CA0",
"u. c #2A6EA3",
"i. c #2771A7",
"p. c #2A70A5",
"a. c #2976AD",
"s. c #2B76AC",
"d. c #2F7BAA",
"f. c #2B78AF",
"g. c #3B7FA7",
"h. c #2C7CB3",
"j. c #2B7FB7",
"k. c #6B5C86",
"l. c #40638D",
"z. c #416594",
"x. c #536897",
"c. c #7D6F94",
"v. c #497FAA",
"b. c #E53180",
"n. c #EB3281",
"m. c #ED3282",
"M. c #966396",
"N. c #9B74A4",
"B. c #3B85A7",
"V. c #3F89A6",
"C. c #3E85AC",
"Z. c #2C80B8",
"A. c #3F86B6",
"S. c #3F83BC",
"D. c #4185A5",
"F. c #4089AB",
"G. c #418CA9",
"H. c #418CAC",
"J. c #418BB1",
"K. c #468AB2",
"L. c #4292B2",
"P. c #4595B2",
"I. c #4697BB",
"U. c #4E90B8",
"Y. c #4199BD",
"T. c #489BB8",
"R. c #499EBB",
"E. c #7987AA",
"W. c #338CC1",
"Q. c #3690C3",
"!. c #3C97C3",
"~. c #3894C6",
"^. c #3B98C9",
"/. c #4490C7",
"(. c #409AC3",
"). c #499DC1",
"_. c #499CCD",
"`. c #4692D4",
"'. c #709BC7",
"]. c #47A0C0",
"[. c #40A1CF",
"{. c #46A7CF",
"}. c #4EAAC8",
"|. c #4EA9CB",
" X c #5BA0C1",
".X c #51B0CC",
"XX c #42A5D2",
"oX c #44A9D4",
"OX c #4EA9D0",
"+X c #49ADD5",
"@X c #4FA7DF",
"#X c #51AFD0",
"$X c #4CB5DD",
"%X c #56B0D5",
"&X c #54B5D5",
"*X c #55B9D4",
"=X c #57BEDA",
"-X c #5CBBDB",
";X c #51BDE3",
":X c #53BFE3",
">X c #59C2DD",
",X c #53C1E5",
"<X c #59C2E0",
"1X c #5CC8E5",
"2X c #5DCBE5",
"3X c #5CCAE7",
"4X c #55C5E8",
"5X c #5ECEEA",
"6X c #5ACEEE",
"7X c #5ECDF2",
"8X c #5DD2F1",
"9X c #5FD6F4",
"0X c #73CFED",
"qX c #61D4EE",
"wX c #61D4EF",
"eX c #62D5F6",
"rX c #62DAF6",
"tX c #64DAF5",
"yX c #64DEF9",
"uX c #66E0FA",
"iX c #67E2FC",
"pX c #69E6FF",
"aX c #6CE7FF",
"sX c #6FE7FF",
"dX c #72E8FF",
"fX c #76E8FF",
"gX c #79E9FF",
"hX c #8E82A2",
"jX c #9583B0",
"kX c #A89FB8",
"lX c #8B9AC3",
"zX c #A8B8CB",
"xX c #BAB2C6",
"cX c #8AE0F5",
"vX c #82EAFF",
"bX c #85EBFF",
"nX c #89EBFF",
"mX c #8FECFF",
"MX c #92EDFF",
"NX c #98EEFF",
"BX c #A5F0FF",
"VX c #A8F0FF",
"CX c #AFF1FF",
"ZX c #B8F3FF",
"AX c #CBC5D4",
"SX c #D4CFDB",
"DX c #DCD9E3",
"FX c #C3F5FF",
"GX c #E1FAFF",
"HX c white",
"JX c None",
/* pixels */
"JXJXJXJXJXJXJXJXJXJXJXJXJXJXJXJXJXJXJXJXJXJXJXJXX X X X X X X X X X X X X X X X X X X X JXJXJXJXJXJXJXJXJXJXJXJXJXJXJXJXJXJXJXJX",
"JXJXJXJXJXJXJXJXJXJXJXJXJXJXJXJXJXJXJXJXX X X X T.*X*X*X*X*X*X*X*X*X*X*X*X*X*X*X*X*X*X*Xr X X X JXJXJXJXJXJXJXJXJXJXJXJXJXJXJXJX",
"JXJXJXJXJXJXJXJXJXJXJXJXJXJXJXJXX X X 7 G.G.G.G.qXpXpXpXpXpXpXpXpXpXpXpXpXpXpXpXpXpXpXpXR.G.G.G.:.X JXJXJXJXJXJXJXJXJXJXJXJXJXJX",
"JXJXJXJXJXJXJXJXJXJXJXJXJXJXX <.G.G.G.R.pXpXpXpXpXpXpXpXpXpXpXpXpXpXpXpXpXpXpXpXpXpXpXpXpXpXpXpXOX&.Q X   JXJXJXJXJXJXJXJXJXJXJX",
"JXJXJXJXJXJXJXJXJXJXJXJXJX_ ] .XpXfXnXnXnXnXpXpXpXpXpXpXpXpXpXpXpXpXpXpXpXpXpXpXpXpXpXpXpXpXpXpX7X@X/.l l JXJXJXJXJXJXJXJXJXJXJX",
"JXJXJXJXJXJXJXJXJXJXJXy y >XpXdXgXMXZXZXZXZXgXgXaXpXpXpXpXpXpXpXpXpXpXpXpXpXpXpXpXpXpXpXpXpXpXpXpXpXeX`.`., , JXJXJXJXJXJXJXJXJX",
"JXJXJXJXJXJXJXJXJXX X pXpXpXpXNXZXZXZXZXZXZXZXZXgXpXpXpXpXpXpXpXpXpXpXpXpXpXpXpXpXpXpXpXpXpXpXpXpXpXpXpXpXZ.Z., X JXJXJXJXJXJXJX",
"JXJXJXJXJXJXJXJXJXX X pXpXVXZXZXZXZXZXZXZXZXZXZXgXpXpXpXpXpXpXpXpXpXpXpXpXpXpXpXpXpXpXpXpXpXpXpXpXpXpXpXpXZ.Z.Z.Z.j X X JXJXJXJX",
"JXJXJXJXJXJXJXX r *X*XpXpXVXZXZXZXZXZXZXZXZXZXZXgXpXpXpXpXpXpXpXpXpXpXpXpXpXpXpXpXpXpXpXpXpXpXpXpXpXpXpXpXZ.Z.Z.Z.j X X JXJXJXJX",
"JXJXJXJXJXJXJXX y pXpXpXpXVXZXZXZXZXZXZXZXZXnXnXsXpXpXpXpXpXpXpXpXpXpXpXpXpXpXpXpXpXpXpXpXpXpXpXpXpXpXpXpX;X;XW.Z.2.H k X JXJXJX",
"JXJXJXJXJXX I G.R.pXpXpXpXvXnXBXZXZXZXCXnXnXJ.J.J.J.<XpXpXpXpXpXpX).J.J.J.#XpXpXpXpXpXpXpXpXpXpXpXpXpXpXpXpXpX~.Z.Z.Z.H X X JXJX",
"JXJXJXJXX X ] pXpXpXpXpXpXpXpXbXNXNXNXcX|.|.J.J.J.J.<XpXpXpXpXpXpX).J.J.J.I.|.&XpXpXpXpXpXpXpXpXpXpXpXpXpXpXpX~.Z.Z.Z.H X X JXJX",
"JXJXJXJXX X ] pXpXpXpXpXpXpXpXpXpXpXpX5X9.9.pXpX5X1X1X1XwXpXuX1X1X1X1XtXpX&X9.C.pXpXpXpXpXpXpXpXpXpXpXpXpXpXpX~.Z.Z.Z.H X X JXJX",
"JXJXJXJXX X ] pXpXpXpXpXpXpXpXpXpXpXpXpXpXpXpXpX9./ / / J.pX1X/ / / / |.pXpXpXpXpXpXpXpXpXpXpXpXpXpXpXpXpXpXpX~.Z.Z.Z.H X X JXJX",
"JXJXJXJXX X ] pXpXpXpXpXpXpXpXpXpXpXpXpXpXpXpXpX9./ / / J.pX1X/ / / / |.pXpXpXpXpXpXpXpXpXpXpXpXpXpXpXpXpXpXpX~.Z.Z.Z.H X X JXJX",
"JXJXJXJXX X ] pXpXpXpXpXpXpXpXpXpXpXpXpXpXpXpXpX5X1X1X1XwXpXuX1X1X1X1XtXpXpXpXpXpXpXpXpXpXpXpXpXpXpXpXpXpXpXpX~.Z.Z.Z.H X X JXJX",
"JXJXJXJXX X ] pXpXpXpXpXpXpXpXpXpXpXpXpXpXpXpXpXpXpXpXpXpXpXpXpXpXpXpXpXpXpXpXpXpXpXGXGXGXGXE.m v.pXpXpXpXpXpX~.Z.Z.Z.H X X JXJX",
"JXJXJXJXX X ] pXpXpXpXpXpX).J.J.J.J.J. XFXFXFXFXFXFXFXFXFXFXFXFXFXFXFXFXFXFXFXFXFXFXHXHXHXHXc.< n z.v.pXpXpXpX~.Z.Z.Z.H X X JXJX",
"JXJXJXJXX X ] pXpXpXpX|.|.,./ / / / / l.zXzXHXHXHXHXAXkXAXHXHXHXHXxXkXDXHXHXHXHXHXHXkXkXkXkX[ < < < c U.U.pXpX~.Z.Z.Z.H X X JXJX",
"JXJXJXJXJXX _ *X>XpXpX/ / / / / / / / ^ T T SXSXSXSXk.< k.SXSXSXSXC < hXSXSXSXSXSXSX< < < < < < < < < < < pXpX~.Z.i.7.D X X JXJX",
"JXJXJXJXJXJXJXX y pXpX/ / / / / / / / T < < < < < < < < < < < < < < < < < < < < < < < < < < < < < < < < < pXpX~.Z.j X X JXJXJXJX",
"JXJXJXJXJXJXJXX y pXpX/ / / / / / v < < < < < < < < < < < < < < < < < } m.m.m.#.............B < < < < < < pXpX~.Z.g X X JXJXJXJX",
"JXJXJXJXJXJXJXJXJXy y 1X1X8./ / / v < < < < < < < < < < < < < < <  .o.@.m.m.m.n.#.#.........| { V < n -X-XS.S.p , $ JXJXJXJXJXJX",
"JXJXJXJXJXJXJXJXJXJXJXy y }.1Xg./ ~ T b < < < < < < < < < < M o.o.b.m.m.m.m.m.$.X.X.............M.-X%XS.S.- - JXJXJXJXJXJXJXJXJX",
"JXJXJXJXJXJXJXJXJXJXJXJXJX_ ] H.|.|.|.K.< < < < < < < < < < N +.+.+.+.+.+.+.+.O.........jXlXlXlX'._.A.e e JXJXJXJXJXJXJXJXJXJXJX",
"JXJXJXJXJXJXJXJXJXJXJXJXJXJXX <.G.G.G.D.z.z.z.z.z.z.z.z.z.z.x.N.N.N.N.N.N.N.N.N.N.N.N.N.0XpX.XG.0.R x X X JXJXJXJXJXJXJXJXJXJXJX",
"JXJXJXJXJXJXJXJXJXJXJXJXJXJXJXJXX X X r *X*X*X*X*X*X*X*X2XpXiX8X8XiXpXpXpXqX*X*X*X*X*X*X*X*X_ X X X X JXJXJXJXJXJXJXJXJXJXJXJXJX",
"JXJXJXJXJXJXJXJXJXJXJXJXJXJXJXJXJXJXJXJXX X X X X X X X ] pX8XZ.Z.8XpXpXpXG.X X X X X X X X JXJXJXJXJXJXJXJXJXJXJXJXJXJXJXJXJXJX",
"JXJXJXJXJXJXJXJXJXJXJXJXJXJXJXJXJXJXJXJXX X X X 7.Z.Z.Z.Z.Z.Z.Z.Z.Z.Z.Z.Z.Z.Z.7.X X X X JXJXJXJXJXJXJXJXJXJXJXJXJXJXJXJXJXJXJXJX",
"JXJXJXJXJXJXJXJXJXJXJXJXJXJXJXX X X X # / / / / s.Z.;XpXpXpXpXpXpXpXpXoXZ.Z.Z.Z.Z.Z.Z.Z., X X X X JXJXJXJXJXJXJXJXJXJXJXJXJXJXJX",
"JXJXJXJXJXJXJXJXJXJXJXX X X X e.*XF.A Y / / s.s.:X8XyXpXpXpXpXpXpXpXpXoXZ.Z.Z.Z.Z.Z.8X8X=X*X*X*Xr.X X X X JXJXJXJXJXJXJXJXJXJXJX",
"JXJXJXJXJXJXJXX X X X V.G.J a 1.J.>.3 3 3 3 Z.Z.8XpXpXpXpXpXpXpXpXpXpXoXZ.Z.Z.i.j j ] ] (.oX6XpX>XG.G.G.G.X X X X JXJXJXJXJXJXJX",
"JXJXJXJXJXJXf ] ` j j ;X;XW a a a 4 X X X X Z.Z.8XpXpXpXpXpXpXpXpXpXpXoXZ.Z.Z.7.X X X X S H w.G.].;X4XpXpX] ] ] ] d JXJXJXJXJXJX",
"JXJXJXJX6 y q.8X:Xs.s.7.6.; X X X JXJXJXX X ~.~.9XpXpXpXpXpXpXpXpXpXpXoXZ.Z.Z.7.X X JXJX  X X X i 7.d.1X1X8X8XiXpXr.y y y r JXJX",
"JXJXX X G.pX;XZ.s./ / X X JXJXJXJXJXJXJXX X pXpXpXpXpXpXpXpXpXpXpXpXpXoXZ.Z.Z.7.X X JXJXJXJXJXJXJXX @ / / Z.Z.8XpXpXpXpXpX*XX X ",
"X X *XpXoXZ.y./ A X X JXJXJXJXJXJXJXX t pXpXpXpXpXpXpXpXpXpXpXpXpXpXpXoXZ.Z.Z.7.X X JXJXJXJXJXJXJXJXJXX X / / s.Z.;XpX;XZ.6.X X ",
"X X *XpXpXpX;XZ.Z.Z.j.X X JXJXJXJXJXX y pXpXZXZXZXZXnXpXpXpXpXpXpXpXpXoXZ.Z.Z.7.X X JXJXJXJXJXJXJXX t pXpXpXpX~.Z.3./ a X X JXJX",
"JXJXr y R.pXyX8X,XZ.Z.7.6.; X X X _ *X>XpXpXZXZXZXZXCXVXmXpXpXpXpXpXpXoXZ.Z.Z.7.X X JXJXJXJXJXX ) *X>XpXpX~.~.4.-.w # + JXJXJXJX",
"JXJXJXJXI ] P.pXyX;X;XZ.Z.=.H 1 X ] pXdXNXNXZXZXZXZXZXZXNXpXpXpXpXpXpXoXZ.Z.Z.a.H H X X X X :.G..XpXrXoXoX3.3.w 3 * JXJXJXJXJXJX",
"JXJXJXJXX X K |.|.|.|.y.y.h.Z.j X ] pXdXNXNXZXZXZXZXBXNXbXpXpXpXpXpXpXoXZ.Z.Z.Z.Z.Z.X X U ] .XpX9X;X+Xy.y.a a O X JXJXJXJXJXJXJX",
"JXJXJXJXX X q 9.8./ / -.-.f.Z.j X ] pXpXpXpXVXVXVXVXvXpXpXpXpXpXpXpXpXoXZ.Z.Z.Z.Z.Z.X X *XpXrX8X+Xs.u./ / , , o X JXJXJXJXJXJXJX",
"JXJXJXJXX X ] pX3X-.-.Z.Z.t.7.0 X ` 8X9XpXpXpXpXpXpXpXpXpXpXpXpXpX9X8X[.Z.Z.Z.Z.Z.Z.X X P.*X!.Z.p.-.-.-.-.Z.Z., X JXJXJXJXJXJXJX",
"JXJXJXJXX X ' pX8XZ.Z.Z.Z.: X X X j Z.~.pXpXpXpXpXpXpXpXpXpXpXpXpX~.Z.Z.Z.Z.Z.Z.Z.Z.X X X X G Z.Z.Z.Z.Z.Z.Z.Z.> X JXJXJXJXJXJXJX",
"JXJXJXJXJXJXJXX X X X X X JXJXX X j Z.Z.Z.Z.Z.Z.Z.Z.Z.Z.Z.Z.Z.Z.Z.Z.Z.Z.Z.Z.Z.s./ / X X JXJX  X X X X X X X X JXJXJXJXJXJXJXJXJX",
"JXJXJXJXJXJXJXJXJXJXJXJXJXJXJXJXJX& , u Z.Z.Z.Z.Z.Z.Z.Z.Z.Z.Z.Z.Z.Z.Z.Z.Z.p.-.! # @ JXJXJXJXJXJXJXJXJXJXJXJXJXJXJXJXJXJXJXJXJXJX",
"JXJXJXJXJXJXJXJXJXJXJXJXJXJXJXJXJXJXX = 3.3.Z.Z.Z.Z.%.j j j j j j j j *.3.;./ A X X JXJXJXJXJXJXJXJXJXJXJXJXJXJXJXJXJXJXJXJXJXJX",
"JXJXJXJXJXJXJXJXJXJXJXJXJXJXJXJXJXJXX 2 J.J.Z.Z.=.H 8 X X X X X X X X z 3.;./ A X X JXJXJXJXJXJXJXJXJXJXJXJXJXJXJXJXJXJXJXJXJXJX",
"JXJXJXJXJXJXJXJXJXJXJXJXJXJXJXJXJXJXX y pXpXZ.Z., X JXJXJXJXJXJXJXX X H Z.p.-.E X X JXJXJXJXJXJXJXJXJXJXJXJXJXJXJXJXJXJXJXJXJXJX",
"JXJXJXJXJXJXJXJXJXJXJXJXJXJXJXJXJX5 y ( 8X8X7.6.; X JXJXJXJXJXJXJXX X D 7.i.Z.t., , JXJXJXJXJXJXJXJXJXJXJXJXJXJXJXJXJXJXJXJXJXJX",
"JXJXJXJXJXJXJXJXJXJXJXJXJXJXJXX X ] pX8XZ.Z.X X JXJXJXJXJXJXJXJXJXJXJXX X j Z.Z.Z.Z.X X JXJXJXJXJXJXJXJXJXJXJXJXJXJXJXJXJXJXJXJX",
"JXJXJXJXJXJXJXJXJXJXJXJXJXJXJXX X ] pX8XZ.Z.X X JXJXJXJXJXJXJXJXJXJXJXX X ] pX8XZ.Z.X X JXJXJXJXJXJXJXJXJXJXJXJXJXJXJXJXJXJXJXJX",
"JXJXJXJXJXJXJXJXJXJXJXJXJXJXJXX X ] pX8XZ.Z.X X JXJXJXJXJXJXJXJXJXJXJXX X ] pX8XZ.Z.X X JXJXJXJXJXJXJXJXJXJXJXJXJXJXJXJXJXJXJXJX",
"JXJXJXJXJXJXJXJXJXJXJXJXJXJXJXX X ] pX8XZ.Z.X X JXJXJXJXJXJXJXJXJXJXJXX X ] pX8XZ.Z.X X JXJXJXJXJXJXJXJXJXJXJXJXJXJXJXJXJXJXJXJX",
"JXJXJXJXJXJXJXJXJXJXJXJXJXJXJXL ] B.;X{.H F X X JXJXJXJXJXJXJXJXJXJXJXX X ] pX8XZ.Z.X X JXJXJXJXJXJXJXJXJXJXJXJXJXJXJXJXJXJXJXJX",
"JXJXJXJXJXJXJXJXJXJXJXJXJXX X G.pX;XZ.7.X X JXJXJXJXJXJXJXJXJXJXJXJXJXJXX I G.L.oXoXj h % JXJXJXJXJXJXJXJXJXJXJXJXJXJXJXJXJXJXJX",
"JXJXJXJXJXJXJXJXJXJXJXJXJXX X G.pX;XZ.7.X X JXJXJXJXJXJXJXJXJXJXJXJXJXJXJXJXX y pXpXZ.Z., X JXJXJXJXJXJXJXJXJXJXJXJXJXJXJXJXJXJX",
"JXJXJXJXJXJXJXJXJXJXJXJXJXX X G.pX;XZ.7.X X JXJXJXJXJXJXJXJXJXJXJXJXJXJXJXJXX y pXpXZ.Z., X JXJXJXJXJXJXJXJXJXJXJXJXJXJXJXJXJXJX",
"JXJXJXJXJXJXJXJXJXJXJXX X X X G.pX;XZ.7.X X JXJXJXJXJXJXJXJXJXJXJXJXJXJXJXJXX y pXpXZ.Z., X JXJXJXJXJXJXJXJXJXJXJXJXJXJXJXJXJXJX",
"JXJXJXJXJXJXJXJXJXX X *X*X*X*XqXpX;XZ.7.X X JXJXJXJXJXJXJXJXJXJXJXJXJXJXJXJXX y pXpXZ.Z.t.7.i X JXJXJXJXJXJXJXJXJXJXJXJXJXJXJXJX",
"JXJXJXJXJXJXJXX 7 G.G.pXpXpXpXpXpX;XZ.7.X X JXJXJXJXJXJXJXJXJXJXJXJXJXJXX P G.R.pXpX;X;XW.Z.2.H k X JXJXJXJXJXJXJXJXJXJXJXJXJXJX",
"JXJXJXJXJXJXs ] r.pXpXpXpXpXpX6X;XXXZ.7.X X JXJXJXJXJXJXJXJXJXJXJXJXJXX X ] pXpXpXpXpXpX$XoXQ.Z.2.j i JXJXJXJXJXJXJXJXJXJXJXJXJX",
"JXJXJXJX9 j 5.;X;X;X;X;X;X;X;X^.Z.Z.Z.7.X X JXJXJXJXJXJXJXJXJXJXJXJXJXX X ] pXpXpXpXpXpXpXpX,XoX^.Z.i.j j JXJXJXJXJXJXJXJXJXJXJX",
"JXJXX X Z 7.7.7.7.7.7.7.7.7.7.7.7.7.7.%.X X JXJXJXJXJXJXJXJXJXJXJXJXJXX X U *X*X*X*X*X*X*X*X*X*XY.7.7.7.7.X X JXJXJXJXJXJXJXJXJX",
"JXJXX X X X X X X X X X X X X X X X X X X X JXJXJXJXJXJXJXJXJXJXJXJXJX. X X X X X X X X X X X X X X X X X X X JXJXJXJXJXJXJXJXJX"
};
