/* XPM */
static char *result[] = {
/* columns rows colors chars-per-pixel */
"64 64 24 1 ",
"  c #54697F",
". c #50647A",
"X c #4F6379",
"o c #54687E",
"O c #51657B",
"+ c #4F647A",
"@ c #53677D",
"# c #51667C",
"$ c #52667C",
"% c #53687E",
"& c #50657B",
"* c #52677D",
"= c #556A80",
"- c #55697F",
"; c #586D83",
": c #566B81",
"> c #566A80",
", c #576C82",
"< c #576B81",
"1 c #596E84",
"2 c #596D83",
"3 c #586C82",
"4 c #48596F",
"5 c #46576D",
/* pixels */
"                                                                ",
"                                                                ",
"                                                                ",
"                                                                ",
"................................................................",
"XXXXXXXXXXXXXXXXXXXXXXXXXXXXXXXXXXXXXXXXXXXXXXXXXXXXXXXXXXXXXXXX",
"XXXXXXXXXXXXXXXXXXXXXXXXXXXXXXXXXXXXXXXXXXXXXXXXXXXXXXXXXXXXXXXX",
"XXXXXXXXXXXXXXXXXXXXXXXXXXXXXXXXXXXXXXXXXXXXXXXXXXXXXXXXXXXXXXXX",
"XXXXXXXXXXXXXXXXXXXXXXXXXXXXXXXXXXXXXXXXXXXXXXXXXXXXXXXXXXXXXXXX",
"XXXXXXXXXXXXXXXXXXXXXXXXXXXXXXXXXXXXXXXXXXXXXXXXXXXXXXXXXXXXXXXX",
"XXXXXXXXXXXXXXXXXXXXXXXXXXXXXXXXXXXXXXXXXXXXXXXXXXXXXXXXXXXXXXXX",
"XXXXXXXXXXXXXXXXXXXXXXXXXXXXXXXXXXXXXXXXXXXXXXXXXXXXXXXXXXXXXXXX",
"XXXXXXXXXXXXXXXXXXXXXXXXXXXXXXXXXXXXXXXXXXXXXXXXXXXXXXXXXXXXXXXX",
"XXXXXXXXXXXXXXXXXXXXXXXXXXXXXXXXXXXXXXXXXXXXXXXXXXXXXXXXXXXXXXXX",
"XXXXXXXXXXXXXXXXXXXXXXXXXXXXXXXXXXXXXXXXXXXXXXXXXXXXXXXXXXXXXXXX",
"XXXXXXXXXXXXXXXXXXXXXXXXXXXXXXXXXXXXXXXXXXXXXXXXXXXXXXXXXXXXXXXX",
"XXXXXXXXXXXXXXXXXXXXXXXXXXXXXXXXXXXXXXXXXXXXXXXXXXXXXXXXXXXXXXXX",
"XXXXXXXXXXXXXXXXXXXXXXXXXXXXXXXXXXXXXXXXXXXXXXXXXXXXXXXXXXXXXXXX",
"XXXXXXXXXXXXXXXXXXXXXXXXXXXXXXXXXXXXXXXXXXXXXXXXXXXXXXXXXXXXXXXX",
"XXXXXXXXXXXXXXXXXXXXXXXXXXXXXXXXXXXXXXXXXXXXXXXXXXXXXXXXXXXXXXXX",
"XXXXXXXXXXXXXXXXXXXXXXXXXXXXXXXXXXXXXXXXXXXXXXXXXXXXXXXXXXXXXXXX",
"...XXXXXXXXXXXXXXXXXXXXX..XXXXXXXXXXXXXXXXXXXXXXXXXXXXXXXXX.....",
"ooo.XXXOXXXXXXXXXO+XXXXX@o#XXXXXOXXXXXXX.#XXXXXO.XXXXX$XXXX%oooo",
"   $XX&%#XXXXXXXO #XXXX.  %XXXXX%%.XXXX.@oXXXXX*#XXXX. $XX.     ",
"=== $X@= #.X.@O.%= #.X.@===O.XO*=-O.*@.O==*O..#- &..O%=o..%=====",
";;;;:.>;;,@Oo; O>;;:$O=;;;;,o. ,;;*$:,O*;;,o.%;;;<@O=;;,&@,;;;;;",
"1111<&,112oO,1-$,11,%O;11111,.,211%$,;$o112=&:1111-$,111O%111111",
"1111,&;1;:o#,1>$;113%#1,;111,.:111 *;3O 111=&:1:11=$,111Oo111111",
"1111,&;1.X#$;1>$;11;o$-XO111;.,111 *,.Xo111=&,@X@1=$,111Oo111111",
"1111,&;:XXX$;1>$;111 $OXX:11;.;111-*-XX*111:&:.X.;=$;111$o111111",
"1111,.1-XXX$;1>#1111 #XXXo11;.;111=*@XXO111:&=XXX>=$;111*%111111",
"1111,$1oXXXO;1>*1111 .XXX*11,X;111=o$XX.111:&%XXX  $;111*:111111",
"1111,$1oXXX@11>*1111 *XXX@111.;111=o*XX.111:&:XXX <$;111*:111111",
"1111,$1=XXX@11>*1111 @.XX-111.;111=ooXX#111:&;XXX3<$;111*:111111",
"1111,O13XX.@11=#1111 @*X.;111.3111=@:XXo111:.2OXO1<#;111*-111111",
"1111;O11@.*@11;#1111-@,Oo1111.;111= 1@X-111,.1:.-1<#;111*:111111",
"11111$11,$-@111*1111:@1o,1111.1111==1:.-111;&11@,1<*1111*;111111",
"11111$11,*=@111*1111:@1 ;1111.1111==1<.-111;&11@;1<*1111*;111111",
"11111$11;@=@111*1111:@1=;1111.1111==1,.-111;&11o11<*1111*;111111",
"11111$11;%=@111*1111:@1=11111.1111==1,O-111;&11 11<*1111*;111111",
"11111$111o=@111*1111:@1>11111.1111==1;O-111;&11=11<*1111*;111111",
":::::O:::$%#:::O::::%#:%:::::.::::%%:=.@:::=.=:%:: O::::O=::::::",
"     &   #*O   O    @O @     .    **  .*   o.  *  %O    O       ",
"     &   #*O   O    @O @     .    **  .*   o.  *  %O    O       ",
"OOOOOXOOO...OOO+OOOO..O.OOOOOXOOOO..O.X.OOO.X.O.OO.+OOOO+.OOOOOO",
"XXXXXXXXXXXXXXXXXXXXXXXXXXXXXXXXXXXXXXXXXXXXXXXXXXXXXXXXXXXXXXXX",
"XXXXXXXXXXXXXXXXXXXXXXXXXXXXXXXXXXXXXXXXXXXXXXXXXXXXXXXXXXXXXXXX",
"XXXXXXXXXXXXXXXXXXXXXXXXXXXXXXXXXXXXXXXXXXXXXXXXXXXXXXXXXXXXXXXX",
"XXXXXXXXXXXXXXXXXXXXXXXXXXXXXXXXXXXXXXXXXXXXXXXXXXXXXXXXXXXXXXXX",
"XXXXXXXXXXXXXXXXXXXXXXXXXXXXXXXXXXXXXXXXXXXXXXXXXXXXXXXXXXXXXXXX",
"XXXXXXXXXXXXXXXXXXXXXXXXXXXXXXXXXXXXXXXXXXXXXXXXXXXXXXXXXXXXXXXX",
"XXXXXXXXXXXXXXXXXXXXXXXXXXXXXXXXXXXXXXXXXXXXXXXXXXXXXXXXXXXXXXXX",
"XXXXXXXXXXXXXXXXXXXXXXXXXXXXXXXXXXXXXXXXXXXXXXXXXXXXXXXXXXXXXXXX",
"XXXXXXXXXXXXXXXXXXXXXXXXXXXXXXXXXXXXXXXXXXXXXXXXXXXXXXXXXXXXXXXX",
"4444444444444444444444444444444444444444444444444444444444444444",
"5555555555555555555555555555555555555555555555555555555555555555",
"5555555555555555555555555555555555555555555555555555555555555555",
"5555555555555555555555555555555555555555555555555555555555555555",
"5555555555555555555555555555555555555555555555555555555555555555",
"5555555555555555555555555555555555555555555555555555555555555555",
"5555555555555555555555555555555555555555555555555555555555555555",
"5555555555555555555555555555555555555555555555555555555555555555",
"5555555555555555555555555555555555555555555555555555555555555555",
"5555555555555555555555555555555555555555555555555555555555555555"
};
