/* XPM */
static char *result[] = {
/* columns rows colors chars-per-pixel */
"60 60 231 2 ",
"   c #0D0C0C",
".  c #090707",
"X  c #110E0E",
"o  c #13110E",
"O  c #19140B",
"+  c #151313",
"@  c #191614",
"#  c #1B1917",
"$  c #1C1B1A",
"%  c #171718",
"&  c #211E1C",
"*  c #231D15",
"=  c #23201E",
"-  c #2C241A",
";  c #352B1B",
":  c #3E341C",
">  c #221E20",
",  c #242222",
"<  c #292624",
"1  c #2C2925",
"2  c #2D2B2B",
"3  c #2C272A",
"4  c #322A25",
"5  c #322D2B",
"6  c #392C29",
"7  c #3D342C",
"8  c #363129",
"9  c #322F30",
"0  c #2F3031",
"q  c #333232",
"w  c #3B3635",
"e  c #3C3935",
"r  c #3C3B3B",
"t  c #363738",
"y  c #2C2E30",
"u  c #47391C",
"i  c #562C26",
"p  c #463928",
"a  c #433532",
"s  c #493A36",
"d  c #423C3C",
"f  c #4D3E3A",
"g  c #443A34",
"h  c #513E3A",
"j  c #553B33",
"k  c #58322C",
"l  c #64322B",
"z  c #6B3A33",
"x  c #632E27",
"c  c #59451C",
"v  c #644B1C",
"b  c #6A5117",
"n  c #594726",
"m  c #4B443B",
"M  c #494339",
"N  c #52423B",
"B  c #5C443F",
"V  c #584B38",
"C  c #5B513C",
"Z  c #48412F",
"A  c #624C28",
"S  c #6B542A",
"D  c #6A562A",
"F  c #745C29",
"G  c #6A5938",
"H  c #6F4F38",
"J  c #7D632A",
"K  c #7B6535",
"L  c #3D3F41",
"P  c #444343",
"I  c #4A4444",
"U  c #4D4B4B",
"Y  c #4A4847",
"T  c #564542",
"R  c #5C4540",
"E  c #5C4944",
"W  c #524E4E",
"Q  c #534B41",
"!  c #59534A",
"~  c #545353",
"^  c #5A5655",
"/  c #5D5955",
"(  c #5D5B5B",
")  c #575859",
"_  c #4B4F52",
"`  c #634C45",
"'  c #654D49",
"]  c #684B44",
"[  c #734E49",
"{  c #6D524C",
"}  c #675947",
"|  c #7C544B",
" . c #73534B",
".. c #635E5B",
"X. c #675A56",
"o. c #725751",
"O. c #755954",
"+. c #7B5C55",
"@. c #7D5C56",
"#. c #69635D",
"$. c #78655A",
"%. c #776B4F",
"&. c #5B5F63",
"*. c #636363",
"=. c #6B6A6A",
"-. c #696667",
";. c #736D6B",
":. c #796B64",
">. c #767169",
",. c #676D72",
"<. c #6D7276",
"1. c #747372",
"2. c #7A7A7A",
"3. c #787878",
"4. c #936D1B",
"5. c #A57619",
"6. c #845E26",
"7. c #A55E3F",
"8. c #86682A",
"9. c #8B752C",
"0. c #866A35",
"q. c #937433",
"w. c #987735",
"e. c #8D702F",
"r. c #F97937",
"t. c #84594C",
"y. c #835C52",
"u. c #845E58",
"i. c #935C44",
"p. c #8C6848",
"a. c #93634A",
"s. c #84625B",
"d. c #8A645D",
"f. c #876354",
"g. c #897A58",
"h. c #91704D",
"j. c #A9684C",
"k. c #B96E4B",
"l. c #8D6963",
"z. c #8A6963",
"x. c #926C65",
"c. c #88766A",
"v. c #807E7D",
"b. c #857A73",
"n. c #96746A",
"m. c #B7871C",
"M. c #9B802B",
"N. c #A18135",
"B. c #AA8637",
"V. c #B58B39",
"C. c #B8932F",
"Z. c #C0881A",
"A. c #E19F1A",
"S. c #E5A11A",
"D. c #F7843E",
"F. c #D8A625",
"G. c #CDA734",
"H. c #E8AC23",
"J. c #E5B936",
"K. c #E6B22D",
"L. c #AA8949",
"P. c #B79546",
"I. c #BAA35F",
"U. c #86827C",
"Y. c #8C877A",
"T. c #948B74",
"R. c #A49669",
"E. c #F78945",
"W. c #F78945",
"Q. c #F59C56",
"!. c #F79049",
"~. c #F6B470",
"^. c #E6AD6B",
"/. c #E9C850",
"(. c #D8C06A",
"). c #757E85",
"_. c #7A7E81",
"`. c #7A848C",
"'. c #7D888F",
"]. c #7E8991",
"[. c #848382",
"{. c #8C8A8A",
"}. c #8A8783",
"|. c #918E8B",
" X c #95928C",
".X c #838C93",
"XX c #899196",
"oX c #899298",
"OX c #949392",
"+X c #9A9A99",
"@X c #AD9689",
"#X c #B1AB96",
"$X c #ADACAC",
"%X c #A7A5A4",
"&X c #B3AFAC",
"*X c #B4B4B4",
"=X c #BCBBBB",
"-X c #B8B7B7",
";X c #B0AFB0",
":X c #C0AB9B",
">X c #D8AE9A",
",X c #F6B888",
"<X c #C0BCAC",
"1X c #E1BEAC",
"2X c #F4CD8F",
"3X c #F0CDB4",
"4X c #F5E8BD",
"5X c #C5C1B8",
"6X c #BCBFC1",
"7X c #C4C3C3",
"8X c #CCCCCB",
"9X c #CBC7C4",
"0X c #D5D5D5",
"qX c #DCDBDB",
"wX c #DED8D4",
"eX c #DFCFC5",
"rX c #EFD7C9",
"tX c #F2D6C6",
"yX c #E4DDD9",
"uX c #E6CFC0",
"iX c #F9EACA",
"pX c #EEE5DB",
"aX c #E3E3E2",
"sX c #ECECEB",
"dX c #EAE8E4",
"fX c #F6EDE8",
"gX c #F9F3EB",
"hX c #F4F4F4",
"jX c #FDFDFD",
"kX c #FBF8F6",
"lX c None",
/* pixels */
"lXlXlXlXlXlXlXlXlXlXlXlXlXlXlXlXlXlXlXlXlXlXlXlXlXlXlXlXlXlXlXlXlXlXlXlXlXlXlXlXlXlXlXlXlXlXlXlXlXlXlXlXlXlXlXlXlXlXlXlX",
"lXlXlXlXlXlXlXlXlXlXlXlXlXlXlXlXlXlXlXlXlXlXlXlXlXlXlXlXlXlXlXlXlXlXlXlXlXlXlXlXlXlXlXlXlXlXlXlXlXlXlXlXlXlXlXlXlXlXlXlX",
"lXlXlXlXlXlXlXlXlXlXlXlXlXlXlXlXlXlXlXlXlXlXlXlXlXlXlXlXlXlXM } } 8 lXlXlXlXlXlXlXlXlXlXlXlXlXlXlXlXlXlXlXlXlXlXlXlXlXlX",
"lXlXlXlXlXlXlXlXlXlXlXlXlXlXlXlXlXlXlXlXlXlXlXlX< p J S n p K L.L.D p 6 lXlXlXlXlXlXlXlXlXlXlXlXlXlXlXlXlXlXlXlXlXlXlXlX",
"lXlXlXlXlXlXlXlXlXlXlXlXlXlXlXlXlXlXlXlXlXlXlX- c S S S J w.V.w.J K 8.F V E H G lXlXlXlXlXlXlXlXlXlXlXlXlXlXlXlXlXlXlXlX",
"lXlXlXlXlXlXlXlXlXlXlXlXlXlXlXlXlXlXlXlXlXlX= # u u O n q.V.e.n p N G V p K 0.0.0.K G G lXlXlXlXlXlXlXlXlXlXlXlXlXlXlXlX",
"lXlXlXlXlXlXlXlXlXlXlXlXlXlXlXlXlXlXlXlXo & < & @ O & n S S 8 = * ; D e.0.q.B.V.e.w.w.N.h.h.lXlXlXlXlXlXlXlXlXlXlXlXlXlX",
"lXlXlXlXlXlXlXlXlXlXlXlXlXlXlXlXlXlXlX3 & < 5 5 = $ # O = - X O ; J w.q.n n 8.w.8.e.B.q.lXlXlXlXlXlXlXlXlXlXlXlXlXlXlXlX",
"lXlXlXlXlXlXlXlXlXlXlXlXlXlXlXlXlXlXlX& 1 = = 5 $ $ = = , < * p S v n n u D F S 0.0.q.L.(.2XlXlXlXlXlXlXlXlXlXlXlXlXlXlX",
"lXlXlXlXlXlXlXlXlXlXlXlXlXlXlXlXlXlXlX* 1 1 & @   + 4 $ + + + u n 4 1 4 7 n 8.w.e.n p n E } lXlXlXlXlXlXlXlXlXlXlXlXlXlX",
"lXlXlXlXlXlXlXlXlXlXlXlXlXlXlXlXlXlXlXw a a 6 1 < 1 8 +   X $ - 1 # @ @ @ * u 8.B.w.F n p S L.lXlXlXlXlXlXlXlXlXlXlXlXlX",
"lXlXlXlXlXlXlXlXlXlXlXlXlXlXlXlXlXlXlXw R { o.{ N g 7 + . o 1 1 >   $ & # o - u c A S J K p.lXlXlXlXlXlXlXlXlXlXlXlXlXlX",
"lXlXlXlXlXlXlXlXlXlXlXlXlXlXlXlXlXlXlX' ' ' { {  .} o.N 1 @ 4 4 &   + , 4 & # & - ; p V lXlXlXlXlXlXlXlXlXlXlXlXlXlXlXlX",
"lXlXlXlXlXlXlXlXlXlXlXlXlXlXlXlXlXlXlXd s j f h O.d.d.s.{ N M N h 4 s g 1 # & < 4 < < 2 lXlXlXlXlXlXlXlXlXlXlXlXlXlXlXlX",
"lXlXlXlXlXlXlXlXlXlXlXlXlXlXlXlXlXlXlX, @ 4 a s O.l.x.x.d.s.$.@.$.O.@.O.T 1 & & 8 1 < & , lXlXlXlXlXlXlXlXlXlXlXlXlXlXlX",
"lXlXlXlXlXlXlXlXlXlXlXlXlXlXlXlXlX, a T B a a { d.x.x.x.x.x.l.x.x.l.x.z.s.o.E m 8 e g lXlXlXlXlXlXlXlXlXlXlXlXlXlXlXlXlX",
"lXlXlXlXlXlXlXlXlXlXlXlXlXlXlXlXlX$ a O.z.o.' ' u.x.x.x.n.x.x.x.x.x.x.x.x.x.d.@.E I I lXlXlXlXlXlXlXlXlXlXlXlXlXlXlXlXlX",
"lXlXlXlXlXlXlXlXlXlXlXlXlXlXlXlXlX# a +.l.l.u.B O.+.R R R ` ] @.x.x.d.y.B B R R E T lXlXlXlXlXlXlXlXlXlXlXlXlXlXlXlXlXlX",
"lXlXlXlXlXlXlXlXlXlXlXlXlXlXlXlXlX& g o.' o.@.o.s.s.[ k i k [ u.x.x.d.u.] i i j O.lXlXlXlXlXlXlXlXlXlXlXlXlXlXlXlXlXlXlX",
"lXlXlXlXlXlXlXlXlXlXlXlXlXlXlXlXlXlXw I ..W T z.l.l.s.z i z u.x.x.x.x.d.t.x x z z.lXlXlXlXlXlXlXlXlXlXlXlXlXlXlXlXlXlXlX",
"lXlXlXlXlXlXlXlXlXlXlXlXlXlXlXlXlXlXlX3 P 0 6 @.l.x.x.z l z d.x.x.x.x.x.y.l x H n.lXlXlXlXlXlXlXlXlXlXlXlXlXlXlXlXlXlXlX",
"lXlXlXlXlXlXlXlXlXlXlXlXlXlXlXlXlXlXlXlXlXlX> a [ u.d.[ | t.l.x.x.x.x.x.d.t.| y.z.lXlXlXlXlXlXlXlXlXlXr.r.E.W.lXlXlXlXlX",
"lXlXlXlXlXlXlXlXlXlXlXlXlXlXlXlXlXlXlXlXP r 2 > w h h R [ u.x.x.x.x.x.x.x.l.s. .I 6 lXlXlXlXlXlXlXlXW.!.Q.~.Q.E.r.r.lXlX",
"lXlXlXlXlXlXlXlXlXlXlXlXlXlXlXlXlXlXlXM [.OXOX{.|.OX{.v.:.o.d.x.x.x.x.x.x.u.| A A u - ; - lXlXlXlXlXD.Q.2XiX~.W.r.r.lXlX",
"lXlXlXlXlXlXlXlXlXlXlXlXlXlXlXlXlXlXlXt *XqXsXsXsXsXaXY.%.h.h.x.x.x.d.s.+.H 8.5.m.5.4.4.b u X lXlXlXW.,XpXgX3X~.D.E.lXlX",
"lXlXlXlXlXlXlXlXlXlXlXlXlXlXlXlXlXlX, t =XsXjXjXjXjXsX;.K P.a.f.f.O.B j V 8.m.S.S.S.A.S.5.c + lXlXlXQ.2XiXiX2XQ.D.E.lXlX",
"lXlXlXlXlXlXlXlXlXlXlXlXlXlXlXlXlX, Y {.qXkXjXjXjXjXhX:.K P.a.t.| [ B ! %.C.K.K.S.H.S.A.5.b lXlXlXlX!.~.~.~.W.D.lXlXlXlX",
"lXlXlXlXlXlXlXlXlXlXlXlXlXlXlXlXr ~ {.8XhXjXjXjXjXjXsXz.0.P.p.p.y.| O.%.$.q.C.J.K.H.F.m.4.lXlXlXlXlXlXE.!.D.r.lXlXlXlXlX",
"lXlXlXlXlXlXlXlXlXlXlXlXlXlXlXI ;.%X9XyXdXhXkXjXjXjXkX%Xc.%.%.z.U.c.c.:.) c J G.C.4.b c lXlXlXlXlXlXlXlXlXlXlXlXlXlXlXlX",
"lXlXlXlXlXlXlXlXlXlXlXlXlXlX# m @XeXrX3XpXdXsXjXjXjXjX0X[.e %.U.}.{.Y.U.#.Z J C.F : * # lXlXlXlXlXlXlXlXlXlXlXlXlXlXlXlX",
"lXlXlXlXlXlXlXlXlXlXlXlXlXlX6 ` @X1XtXrXgXhXhXjXjXjXjXwX XC p.T.XX+X+X+X XC 4.G.M.J n 7 lXlXlXlXlXlXlXlXlXlXlXlXlXlXlXlX",
"lXlXlXlXlXlXlXlXlXlXlXlXlXlX[ n.>X3XpXkXjXjXjXjXgXgXgX3X#XT.G U.#X6X*X$X$XC J K.J.G.B.K lXlXlXlXa a f g g E 6 = lXlXlXlX",
"lXlXlXlXlXlXlXlXlXlXlXlXlX# $.#XtXfXhXjXjXhXsXsXrX3X3XtXeX&Xm %.&XdX0X=XOXV 9.K.J.G.M.D Z lXlX} { o.@.' ' o.g 4 lXlXlXlX",
"lXlXlXlXlXlXlXlXlXlXlXlXlX# 1.<XhXjXjXjXjXqX9XaXrXtXtXgXaX*Xe C R.dXsX8XXXC 9././.I.g.M ) ) ~ :.c.x.l.l.s.' f lXlXlXlXlX",
"lXlXlXlXlXlXlXlXlXlXlXlX% > [.7XsXhXjXjXaX=X*XhXkXjXjXjXsX-XY 9 / 7XqX7XY.C 9./.2X#X{.*.+X%X[.U.c.x.s.s.u.f lXlXlXlXlXlX",
"lXlXlXlXlXlXlXlXlXlXlXlXy ( $XaXhXjXjXhX9X*X-XaXaXsXjXjXhXqXOX~ ) *X*X X/ p K (.4X<X'...%X-X X1.-...' [ lXlXlXlXlXlXlXlX",
"lXlXlXlXlXlXlXlXlXlXlXlXlX*.$XqXjXjXjXhX0X%X[.{.2.+XqXhXjXkX0X3.~ %XOX2.~ 8 C #XsX6X3.w ) =.3.( ) W f lXlXlXlXlXlXlXlXlX",
"lXlXlXlXlXlXlXlXlXlXlXlXlX9 {.8XjXjXjXjXsX{.r r 2 r 1.6XsXhX0X1.L 2.[.3.~ q ) %XsX8X[.q $ lXlXlXlXlXlXlXlXlXlXlXlXlXlXlX",
"lXlXlXlXlXlXlXlXlXlXlXlXr =.&XqXhXsXaX0X$X=.W [.3.W @ *.*XsX0X_.M &.1.=.( q *.*XhXaX*X,.U lXlXlXlXlXlXlXlXlXlXlXlXlXlXlX",
"lXlXlXlXlXlXlXlXlXlXlX, r |.<XyXdX7X+X1.W t _ 6X+X( , r {.dXaX;X`.U.#.! ( q _ XX8X0X=X`.r $ lXlXlXlXlXlXlXlXlXlXlXlXlXlX",
"lXlXlXlXlXlXlXlXlXlXlXU / b.@X&X;X{.^ > $ $ 0 &.L < > P [.7X8X6X-X&X&.P #.r U >.1.-.( r 3 lXlXlXlXlXlXlXlXlXlXlXlXlXlXlX",
"lXlXlXlXlXlXlXlXlXlXlXr I #.c.c.:.Y t 3 X   + , 0 3 % r ) -.=.=.=.=.-.=.1.) _ U P e 1 @ lXlXlXlXlXlXlXlXlXlXlXlXlXlXlXlX",
"lXlXlXlXlXlXlXlXlXlXlX  # h @.O.h @ $ 9 $ > < 2 Y W M U W ~ ~ ~ ~ ( 1.v.v.2.U.T.>./ M lXlXlXlXlXlXlXlXlXlXlXlXlXlXlXlXlX",
"lXlXlXlXlXlXlXlXlXlXlXlX+ 4 E T <   + < t 2 3 d -.=.W ~ ~ ) ~ W ~ / / ( ( } h.R.T.lXlXlXlXlXlXlXlXlXlXlXlXlXlXlXlXlXlXlX",
"lXlXlXlXlXlXlXlXlXlXlXlXlXlX5 5 3   % q ) L 2 W #.^ d d e q > , 1 t r d d m } T.b.b.lXlXlXlXlXlXlXlXlXlXlXlXlXlXlXlXlXlX",
"lXlXlXlXlXlXlXlXlXlXlXlXlXX X + % X = t d P U ~ ~ Y d w q q lXlX1 1 e d d m } g.c.>.>.lXlXlXlXlXlXlXlXlXlXlXlXlXlXlXlXlX",
"lXlXlXlXlXlXlXlXlXlXlXlX  . + % X $ < 0 q L U W I d r 1 q P lXlXlX# 8 e d M V G %.#.^ lXlXlXlXlXlXlXlXlXlXlXlXlXlXlXlXlX",
"lXlXlXlXlXlXlXlXlXlXlXlXlXX X + X % q ) =.( W U I I I < $ lXlXlXlX% 5 r d r r r Y w , lXlXlXlXlXlXlXlXlXlXlXlXlXlXlXlXlX",
"lXlXlXlXlXlXlXlXlXlXlXlXlX  X % < , Y 3.v.2.>.2.3.=.*.q lXlXlXlXlXlX& 2 t e t t r lXlXlXlXlXlXlXlXlXlXlXlXlXlXlXlXlXlXlX",
"lXlXlXlXlXlXlXlXlXlXlX    X 2 t 0 3.2.*.( / #.U.[.1.Y lXlXlXlXlXlXlXX + @ & < y lXlXlXlXlXlXlXlXlXlXlXlXlXlXlXlXlXlXlXlX",
"lXlXlXlXlXlXlXlXlXlXlX  % q r t 0 %X{.L q 1 2 U ( =.lXlXlXlXlXlXlXlX$ @ + $ 2 M lXlXlXlXlXlXlXlXlXlXlXlXlXlXlXlXlXlXlXlX",
"lXlXlXlXlXlXlXlXlXlX%     % % r 2.&.r $ & % $ , lXlXlXlXlXlXlXlXlXy Y / ) ( &.( P lXlXlXlXlXlXlXlXlXlXlXlXlXlXlXlXlXlXlX",
"lXlXlXlXlXlXlXlXlXlXlXX   . lXlXP _ ^ ^ ( / ( ..t , lXlXlXlXlXlXlX2 ~ -.-.#.X.Q e lXlXlXlXlXlXlXlXlXlXlXlXlXlXlXlXlXlXlX",
"lXlXlXlXlXlXlXlXlXlX> #   lXlXlX# M ^ #.=.;.;.:.e # lXlXlXlXlXlXlXlX3 r ..$.f.t.N s lXlXlXlXlXlXlXlXlXlXlXlXlXlXlXlXlXlX",
"lXlXlXlXlXlXlXlXlXlX$ lXlXlXlXlXlX2 N i.f.$.y.j.lXlXlXlXlXlXlXlXlXlX$ 0 ( X.+.a.a.` r lXlXlXlXlXlXlXlXlXlXlXlXlXlXlXlXlX",
"lXlXlXlXlXlXlXlXlXlXlXlXlXlXlXlX'.t a [ j.k.7.l -.`..X.X.X.X.X.X'.<.r t *.*.#.X.X./ _ r lXlXlXlXlXlXlXlXlXlXlXlXlXlXlXlX",
"lXlXlXlXoXoXlXlXlXoX.X.X'..X'.`.).0 i i.+.$.f.j.s P ).`.`.`.`.`.`.`.,.Y 3 y L _ ^ ) _ r lXlXlXlXlXlXlXlXlXlXlXlXlXlXlXlX",
"lXlXlXlXlXlXlXlXlXlX.X.X].`.`.`.).t 9 Q ) *.1.b.r r ).`.`.`.`.`.`.].`.).,.&.L , < > > 2 lXlXlXlXlXlXlXlXlXlXlXlXlXlXlXlX",
"lXlXlXlXlXlXlXlXlXlXlXlXlXoX.X.X].<._ 2 , , 3 2 ~ <.`.].].].]..X.XlX].].].`.3.,.=.lXlXlXlXlXlXlXlXlXlXlXlXlXlXlXlXlXlXlX",
"lXlXlXlXlXlXlXlXlXlXlXlXlXlXlXlXlXoX`.<.,.,.,.lXlXlXlXlXlXlXlXlXlXlXlXlXlXlXlXlXlXlXlXlXlXlXlXlXlXlXlXlXlXlXlXlXlXlXlXlX"
};
