/* XPM */
static char *result[] = {
/* columns rows colors chars-per-pixel */
"64 64 232 2 ",
"   c #0E0D0D",
".  c #110E0E",
"X  c #141312",
"o  c #191715",
"O  c #1C1916",
"+  c #1D1A19",
"@  c #181718",
"#  c #100F10",
"$  c #211E1C",
"%  c #231D15",
"&  c #24211E",
"*  c #2B241C",
"=  c #2C2415",
"-  c #352C1B",
";  c #3F331D",
":  c #221E20",
">  c #252322",
",  c #2B2623",
"<  c #2D2925",
"1  c #2D2B2B",
"2  c #2B272A",
"3  c #332C26",
"4  c #332E2B",
"5  c #3B2F23",
"6  c #3B322D",
"7  c #3A3127",
"8  c #343333",
"9  c #3B3634",
"0  c #3D3935",
"q  c #3D3C3B",
"w  c #373839",
"e  c #2E2F30",
"r  c #46371B",
"t  c #483A26",
"y  c #56362A",
"u  c #433633",
"i  c #453A35",
"p  c #4B3B36",
"a  c #413D3C",
"s  c #4D3C38",
"d  c #5B3A33",
"f  c #562E28",
"g  c #64362D",
"h  c #6B3C34",
"j  c #632F28",
"k  c #56431C",
"l  c #715519",
"z  c #584727",
"x  c #44413D",
"c  c #4B433C",
"v  c #464037",
"b  c #54433D",
"n  c #584A39",
"m  c #4B412D",
"M  c #624E27",
"N  c #66522B",
"B  c #6C562A",
"V  c #6E5725",
"C  c #745C2B",
"Z  c #7A5E2B",
"A  c #644A3D",
"S  c #72453D",
"D  c #695737",
"F  c #765B36",
"G  c #7D622C",
"H  c #786334",
"J  c #3D3E40",
"K  c #413F41",
"L  c #3F4143",
"P  c #444243",
"I  c #4A4543",
"U  c #4C4B4B",
"Y  c #494848",
"T  c #514D4C",
"R  c #584843",
"E  c #57514A",
"W  c #545353",
"Q  c #5A5654",
"!  c #5C5956",
"~  c #5D5C5C",
"^  c #55585B",
"/  c #4F5051",
"(  c #634A45",
")  c #654D48",
"_  c #6A4E49",
"`  c #664944",
"'  c #744E46",
"]  c #6C524C",
"[  c #645847",
"{  c #73534C",
"}  c #785748",
"|  c #615E5C",
" . c #675B57",
".. c #735751",
"X. c #765A54",
"o. c #7C5B55",
"O. c #7F5F58",
"+. c #776749",
"@. c #6D635B",
"#. c #6A6459",
"$. c #776757",
"%. c #7D725C",
"&. c #656363",
"*. c #6A6563",
"=. c #6B6B6B",
"-. c #68696A",
";. c #746C66",
":. c #686D71",
">. c #6F7479",
",. c #757473",
"<. c #7B7A7A",
"1. c #787777",
"2. c #767169",
"3. c #5B5F63",
"4. c #986F1A",
"5. c #A87B1C",
"6. c #85672C",
"7. c #977A2D",
"8. c #856A34",
"9. c #8D7035",
"0. c #957533",
"q. c #9E7C36",
"w. c #9A7A36",
"e. c #8D732A",
"r. c #A17F2B",
"t. c #874E3B",
"y. c #F97B38",
"u. c #845A4C",
"i. c #845D53",
"p. c #835F58",
"a. c #905845",
"s. c #89674B",
"d. c #92644D",
"f. c #97784B",
"g. c #84635C",
"h. c #8A655E",
"j. c #886558",
"k. c #916E4B",
"l. c #A2674C",
"z. c #8A6761",
"x. c #8D6963",
"c. c #816D62",
"v. c #926C65",
"b. c #867667",
"n. c #957369",
"m. c #837A74",
"M. c #B28A28",
"N. c #BB9934",
"B. c #AF892F",
"V. c #BDA13F",
"C. c #A9822B",
"Z. c #C9901A",
"A. c #DFA01C",
"S. c #E5A21C",
"D. c #D19E25",
"F. c #F8823F",
"G. c #D6AA31",
"H. c #E6AA23",
"J. c #E2B331",
"K. c #E1B02E",
"L. c #AC8E4C",
"P. c #87837B",
"I. c #928874",
"U. c #94896A",
"Y. c #B09C74",
"T. c #98835C",
"R. c #F78641",
"E. c #F78945",
"W. c #F78C47",
"Q. c #F6904A",
"!. c #F69A56",
"~. c #F6A965",
"^. c #F6B478",
"/. c #D7B74F",
"(. c #EBC757",
"). c #767D82",
"_. c #7B858D",
"`. c #778188",
"'. c #7E8991",
"]. c #848484",
"[. c #8C8B8A",
"{. c #898785",
"}. c #908E8E",
"|. c #96928C",
" X c #828B92",
".X c #8A9196",
"XX c #9B9A99",
"oX c #969695",
"OX c #AA9787",
"+X c #A29E9B",
"@X c #A7A59B",
"#X c #ADA491",
"$X c #A4A3A3",
"%X c #ACABAB",
"&X c #A8A8A6",
"*X c #B4B4B3",
"=X c #BDBDBD",
"-X c #BEBAB3",
";X c #B5B0A9",
":X c #9DA1A3",
">X c #D7B58D",
",X c #D1BDAD",
"<X c #F3BD89",
"1X c #F2C98E",
"2X c #DBCAAC",
"3X c #CAC2BC",
"4X c #F3D7BA",
"5X c #F3D1AF",
"6X c #C4C3C2",
"7X c #CDCDCC",
"8X c #CBC5C1",
"9X c #D5CEC9",
"0X c #D5D4D4",
"qX c #DCDCDA",
"wX c #D9D7D5",
"eX c #DBD8CB",
"rX c #EDD4C5",
"tX c #F2D8C6",
"yX c #E3DDD8",
"uX c #EBE1D6",
"iX c #F4E8DC",
"pX c #F6E4C7",
"aX c #DFE0E0",
"sX c #E4E4E3",
"dX c #EDECEC",
"fX c #EAE7E3",
"gX c #F4EDE7",
"hX c #F6F2EE",
"jX c #F4F4F3",
"kX c #FCFCFC",
"lX c #FBF7F3",
"zX c None",
/* pixels */
"zXzXzXzXzXzXzXzXzXzXzXzXzXzXzXzXzXzXzXzXzXzXzXzXzXzXzXzXzXzXzXzXzXzXzXzXzXzXzXzXzXzXzXzXzXzXzXzXzXzXzXzXzXzXzXzXzXzXzXzXzXzXzXzX",
"zXzXzXzXzXzXzXzXzXzXzXzXzXzXzXzXzXzXzXzXzXzXzXzXzXzXzXzXzXzXzXzXzXzXzXzXzXzXzXzXzXzXzXzXzXzXzXzXzXzXzXzXzXzXzXzXzXzXzXzXzXzXzXzX",
"zXzXzXzXzXzXzXzXzXzXzXzXzXzXzXzXzXzXzXzXzXzXzXzXzXzXzXzXzXzX7 D [ x zXzXzXzXzXzXzXzXzXzXzXzXzXzXzXzXzXzXzXzXzXzXzXzXzXzXzXzXzXzX",
"zXzXzXzXzXzXzXzXzXzXzXzXzXzXzXzXzXzXzXzXzXzXzXzXzXzXzXzX7 t N T.L.F m z N G z 5 zXzXzXzXzXzXzXzXzXzXzXzXzXzXzXzXzXzXzXzXzXzXzXzX",
"zXzXzXzXzXzXzXzXzXzXzXzXzXzXzXzXzXzXzXzXzXzXzXzXD _ R n N C H 9.q.f.8.C B B N z ; zXzXzXzXzXzXzXzXzXzXzXzXzXzXzXzXzXzXzXzXzXzXzX",
"zXzXzXzXzXzXzXzXzXzXzXzXzXzXzXzXzXzXzXD D F 8.8.H H D m D C A z V w.C.0.B r r r ; $ zXzXzXzXzXzXzXzXzXzXzXzXzXzXzXzXzXzXzXzXzXzX",
"zXzXzXzXzXzXzXzXzXzXzXzXzXzXzXzXzXk.k.9.8.9.9.0.q.0.8.F C N u * 5 z 6.Z M - = = % $ > % zXzXzXzXzXzXzXzXzXzXzXzXzXzXzXzXzXzXzXzX",
"zXzXzXzXzXzXzXzXzXzXzXzXzXzXzXzXzXzXzXw.q.w.e.0.q.9.B Z 9.G k = O & r t - = O O > , , $ + zXzXzXzXzXzXzXzXzXzXzXzXzXzXzXzXzXzXzX",
"zXzXzXzXzXzXzXzXzXzXzXzXzXzXzXzXzXzXzXL.w.e.8.6.6.C z z G G V t - o * & + + $ + > 1 , > & > zXzXzXzXzXzXzXzXzXzXzXzXzXzXzXzXzXzX",
"zXzXzXzXzXzXzXzXzXzXzXzXzXzXzXzXzXY.Y.0.F C 6.6.G V z t t r y M t O $ + $ > % o $ > & , , $ zXzXzXzXzXzXzXzXzXzXzXzXzXzXzXzXzXzX",
"zXzXzXzXzXzXzXzXzXzXzXzXzXzXzXzXzXD n z z N 8.0.6.k ; < * * , t ; O X X o * * O O & , 4 3 < zXzXzXzXzXzXzXzXzXzXzXzXzXzXzXzXzXzX",
"zXzXzXzXzXzXzXzXzXzXzXzXzXzXzXzXL.Z n z V 6.9.6.k - O o O o o , * $ .   # , 4 4 6 u p p i 9 zXzXzXzXzXzXzXzXzXzXzXzXzXzXzXzXzXzX",
"zXzXzXzXzXzXzXzXzXzXzXzXzXzXzXzXzXs.H Z N z k r ; + o & $ @ . $ < < o . O 6 v b E { ] _ R a zXzXzXzXzXzXzXzXzXzXzXzXzXzXzXzXzXzX",
"zXzXzXzXzXzXzXzXzXzXzXzXzXzXzXzXzXzXzXn t 5 * * $ + & < > O X > 4 5 $ 3 b ] ..{ ] _ ) ( R ( zXzXzXzXzXzXzXzXzXzXzXzXzXzXzXzXzXzX",
"zXzXzXzXzXzXzXzXzXzXzXzXzXzXzXzXzXzXzX1 2 , < < & $ & 7 s s 6 b b c b ] p.h.h.o.` s s y u a zXzXzXzXzXzXzXzXzXzXzXzXzXzXzXzXzXzX",
"zXzXzXzXzXzXzXzXzXzXzXzXzXzXzXzXzXzX> & > < 3 < $ , 6 E X.o.X.$.p.$.g.h.x.v.x.g.( i 6 < $ > zXzXzXzXzXzXzXzXzXzXzXzXzXzXzXzXzXzX",
"zXzXzXzXzXzXzXzXzXzXzXzXzXzXzXzXzXzXzXzXp u 6 0 b ) X.g.x.v.x.v.v.z.v.v.v.v.v.z.o.R u i b b u > zXzXzXzXzXzXzXzXzXzXzXzXzXzXzXzX",
"zXzXzXzXzXzXzXzXzXzXzXzXzXzXzXzXzXzXzXzXI I I ] p.h.x.x.v.v.v.v.v.v.v.n.v.v.v.z...) ) X.g.] 6 + zXzXzXzXzXzXzXzXzXzXzXzXzXzXzXzX",
"zXzXzXzXzXzXzXzXzXzXzXzXzXzXzXzXzXzXzXzXzXI R ` R ` ` ] g.h.v.v.p.{ _ _ _ ` ..o._ _ p.z.z...u o zXzXzXzXzXzXzXzXzXzXzXzXzXzXzXzX",
"zXzXzXzXzXzXzXzXzXzXzXzXzXzXzXzXzXzXzXzXzXzX] A d f d ' g.h.v.v.p.' d d f ` o.p.o...o.X.] ] u $ zXzXzXzXzXzXzXzXzXzXzXzXzXzXzXzX",
"zXzXzXzXzXzXzXzXzXzXzXzXzXzXzXzXzXzXzXzXzXzXz.' j j h i.h.v.v.v.z.p.h f j ' z.z.z.X.) Q  .I 9 zXzXzXzXzXzXzXzXzXzXzXzXzXzXzXzXzX",
"zXzXzXzXzXzXzXzXzXzXzXzXzXzXzXzXzXzXzXzXzXzXn.u.h j h i.v.v.v.v.v.z.h j g u.x.x.z.) u K I 8 zXzXzXzXzXzXzXzXzXzXzXzXzXzXzXzXzXzX",
"zXzXzXzXzXzXzXzXE.F.y.zXzXzXzXzXzXzXzXzXzXzXx.g.' S u.h.v.v.v.v.v.x.u.S ' i.h.p.] u 2 zXzXzXzXzXzXzXzXzXzXzXzXzXzXzXzXzXzXzXzXzX",
"zXzXzXzXzXy.F.Q.!.!.E.E.zXzXzXzXzXzXzXzXzXzXR ] u.i.i.x.v.v.v.v.v.v.p.' ` _ _ ( u 2 1 q zXzXzXzXzXzXzXzXzXzXzXzXzXzXzXzXzXzXzXzX",
"zXzXzXzXy.y.F.!.^.1X~.W.E.zXzXzXzXzXzXzXzXr t M ' i.h.v.v.v.v.v.v.v.p.X. .@.*.*.Q Q | &.~ zXzXzXzXzXzXzXzXzXzXzXzXzXzXzXzXzXzXzX",
"zXzXzXzXF.y.Q.^.5XpX1X!.E.zXzXzXzXzXr k k k Z 6.6.} i.h.h.v.v.v.v.h.s.$.m.$X*X*X*X*X*X%X].a zXzXzXzXzXzXzXzXzXzXzXzXzXzXzXzXzXzX",
"zXzXzXzXE.R.!.<XpXiXtX^.Q.zXzXzX. r l 5.M.M.Z.Z.5.6.F { { o.h.h.x.d.f.s.b.6XgXjXjXjXdX0XXXw zXzXzXzXzXzXzXzXzXzXzXzXzXzXzXzXzXzX",
"zXzXzXzXE.R.Q.~.1X4X5X^.!.zXzXzXX k 4.A.A.A.A.S.A.M.8.R b ` X.i.i.d.L.9.$.6XjXkXkXkXkXsX%XY 1 zXzXzXzXzXzXzXzXzXzXzXzXzXzXzXzXzX",
"zXzXzXzXzXzXzXR.Q.~.~.~.Q.zXzXzXzXl 4.Z.A.H.S.H.K.D.L.[ E [ ' u.u.s.L.9.$.8XkXkXkXkXkXjX0X}.W 1 zXzXzXzXzXzXzXzXzXzXzXzXzXzXzXzX",
"zXzXzXzXzXzXzXzXF.F.Q.Q.zXzXzXzXzXzX4.5.Z.D.G.K.G.w.H $.$.o.i.j.s.s.L.k.v.8XkXkXkXkXkXkXdX8X}.~ P zXzXzXzXzXzXzXzXzXzXzXzXzXzXzX",
"zXzXzXzXzXzXzXzXzXzXzXzXzXzXzXzXzXzXzXk k l C.N.C.B n &.%.m.m.P.h.+.+.b.XXuXkXkXkXkXlXhXsXyX8X&X,.U zXzXzXzXzXzXzXzXzXzXzXzXzXzX",
"zXzXzXzXzXzXzXzXzXzXzXzXzXzXzXzXzXzXzX+ % - M C.7.N n =.P.P.|.P.P.%.x ,.=XdXkXkXkXjXfXfXyX5XrXrXOXR & zXzXzXzXzXzXzXzXzXzXzXzXzX",
"zXzXzXzXzXzXzXzXzXzXzXzXzXzXzXzXzXzXzXe m B e.N.M.G #.|.oXoXoX.XI.k.n P.3XhXkXkXkXkXjXjXgXrXrX2XOX' u zXzXzXzXzXzXzXzXzXzXzXzXzX",
"zXzXzXzXzXzX$ , p b i i s u u zXzXzXzXH C.V.G.J.M.C %.%X*X*X=X#XP.D U.#X2XiXhXhXlXkXkXkXlXlXyX5X>Xn.{ zXzXzXzXzXzXzXzXzXzXzXzXzX",
"zXzXzXzXzXzX3 6 R _ R _ ..] _ [ zXzXm B e.N.G.J.N.H #.:X=X7XqX;X%.n XX3XrXrX4XtXgXgXdXkXkXkXjXgXrX@Xc.4 zXzXzXzXzXzXzXzXzXzXzXzX",
"zXzXzXzXzXzXzXp R ..p.h.z.z.2.$.^ &./ Y +.L./.(.V.H #.:X0XsXaXY.[ v :XeXgXtXtXtXyXqX0XdXkXkXkXlXgX,Xm.1 zXzXzXzXzXzXzXzXzXzXzXzX",
"zXzXzXzXzXzXzXzXs _ g.g.z.v.b.m.1..X{.&.m.Y.(.(.V.H #.XX7XqX6X#.u P $XaXjXlXhXhXgXqX=X7XdXkXkXjXgX6X{.8 + zXzXzXzXzXzXzXzXzXzXzX",
"zXzXzXzXzXzXzXzXzXzXo.....*.2.<.I.*X:X2.`.@X7X1XL.B n m.%X=X*XQ Y >.6XsXlXkXlXdXdX0X*X=XqXkXkXkXjXqX&X^ e zXzXzXzXzXzXzXzXzXzXzX",
"zXzXzXzXzXzXzXzXzXzXzX` R Q &.&.P.[.).E :.@XeX2XT.n v &.[.$X$XW -.*XsXkXkXjX7X*X&X&X$X*XwXjXkXkXjXaX*X,.Y zXzXzXzXzXzXzXzXzXzXzX",
"zXzXzXzXzXzXzXzXzXzXzXzXzXzXzXzXzXzXq 0 :.%XaX3XP.x v 3.<.[.[.U ,.7XdXjXaX*Xm.~ ! ~ ,.%XsXkXkXkXkXwX$X~ zXzXzXzXzXzXzXzXzXzXzXzX",
"zXzXzXzXzXzXzXzXzXzXzXzXzXzXzXzXzXzX8 Y _.3XsX7X{.U L ~ ,.<.-.x ,.7XdXwX$X&.Y U Q Q Q oX0XdXdXjXkX0X$X .P zXzXzXzXzXzXzXzXzXzXzX",
"zXzXzXzXzXzXzXzXzXzXzXzXzXzXzXzXzXzXx :.&X7XaX6X_.U x ~ &.=.=.3..X0XfX*X-.4 q =.}.)./ &.}.*X8XaXdXqX,XP.T 8 zXzXzXzXzXzXzXzXzXzX",
"zXzXzXzXzXzXzXzXzXzXzXzXzXzXzXzXzX$ 8 3.[.&X*XoX=.P P Q W *.|.oX*XwXqXXXW 1 9 &.[.>.q 8 K | ].*X0X7X;X|.Q 9 zXzXzXzXzXzXzXzXzXzX",
"zXzXzXzXzXzXzXzXzXzXzXzXzXzXzXzXzXzX1 e Y ! 3.&.! Y / #.W =.@X:X&X%X%X]./ 2 > 8 P J > @ + , W <.+X+XOXm.| U zXzXzXzXzXzXzXzXzXzX",
"zXzXzXzXzXzXzXzXzXzXzXzXzXzXzXzXzXzXzXO < 0 Y W ! ~ &.,.=.=.*.-.-.&.&.! Y 2 2 8 e : @ # o 1 8 a  .c.b. .I 8 zXzXzXzXzXzXzXzXzXzX",
"zXzXzXzXzXzXzXzXzXzXzXzXzXzXzXzXzXzXzXzXv E =.U.U.P.1.<.1.=.! W W W W T T I T / K 1 , : > 1 @ o p { X.R > X zXzXzXzXzXzXzXzXzXzX",
"zXzXzXzXzXzXzXzXzXzXzXzXzXzXzXzXzXzXzXzXzXzXI.U.T.+.[ ! ! Q W T U / W / W T | *.W 9 2 e 8 , X   , K R 6 + zXzXzXzXzXzXzXzXzXzXzX",
"zXzXzXzXzXzXzXzXzXzXzXzXzXzXzXzXzXzXzXzXzXm.P.I.c.R x a a q w < > : e w q a T | ! P 8 Y / e @   2 3 3 zXzXzXzXzXzXzXzXzXzXzXzXzX",
"zXzXzXzXzXzXzXzXzXzXzXzXzXzXzXzXzXzXzXzX2.2.2.b.+.E c a q 9 , < zXzX8 8 9 0 I T W W Y P a 8 $ . + X X . zXzXzXzXzXzXzXzXzXzXzXzX",
"zXzXzXzXzXzXzXzXzXzXzXzXzXzXzXzXzXzXzXzX! #.$.+.D n v a 0 3 + zXzXzXK 8 1 w a x U T Y q 8 e > + . @ X     zXzXzXzXzXzXzXzXzXzXzX",
"zXzXzXzXzXzXzXzXzXzXzXzXzXzXzXzXzXzXzXzX2 0 I I x q q a 0 1 @ zXzXzXzX> > 0 I I Y T W ! ~ U e @ . X .   zXzXzXzXzXzXzXzXzXzXzXzX",
"zXzXzXzXzXzXzXzXzXzXzXzXzXzXzXzXzXzXzXzXzXzXq q w 0 0 w 1 > zXzXzXzXzXzXe T | -.=.=.=.,.<.=.a : $ @ . . zXzXzXzXzXzXzXzXzXzXzXzX",
"zXzXzXzXzXzXzXzXzXzXzXzXzXzXzXzXzXzXzXzXzXzXzX8 1 < > + @ X zXzXzXzXzXzXzXU &.<.].1.@.*.-.-.-.~ e e > X     zXzXzXzXzXzXzXzXzXzX",
"zXzXzXzXzXzXzXzXzXzXzXzXzXzXzXzXzXzXzXzXzXzXzXa 8 > O @ @ O zXzXzXzXzXzXzXzX-.-.*.T a 0 P W {.oX8 9 w 2 @ # zXzXzXzXzXzXzXzXzXzX",
"zXzXzXzXzXzXzXzXzXzXzXzXzXzXzXzXzXzXzXzXzXzXzXU U P L q 0 9 e zXzXzXzXzXzXzXzXzXP 1 & & 2 e ~ <.~ J 2 > @ # X zXzXzXzXzXzXzXzXzX",
"zXzXzXzXzXzXzXzXzXzXzXzXzXzXzXzXzXzXzXzXzXzXa Y ! #.~ &.~ Y 1 zXzXzXzXzXzXzXzX1 q a q q K q U ^ ~ K zX#     # zXzXzXzXzXzXzXzXzX",
"zXzXzXzXzXzXzXzXzXzXzXzXzXzXzXzXzXzXzXzXzXzXi n ..o.*.| U K zXzXzXzXzXzXzXzX$ 1 T *.#.#.&.! ! Y e zXzXzX  . @ zXzXzXzXzXzXzXzXzX",
"zXzXzXzXzXzXzXzXzXzXzXzXzXzXzXzXzXzXzXzXzXc A } s.$. .W 8 > zXzXzXzXzXzXzXzXzX< ] j.;.;.$.X.R 9 + zXzXzXzX@ $ zXzXzXzXzXzXzXzXzX",
"zXzXzXzXzXzXzXzXzXzXzXzXzXzXzXzXzXzXzXzXP T ..u.o. .| W e 1 zXzXzXzXzXzXzXzXzXzXu.a.d.j.d.} s e zXzXzXzXzXzXzXzXzXzXzXzXzXzXzXzX",
"zXzXzXzXzXzXzXzXzXzXzXzXzXzXzXzXzXzXzXq U W  . .! ! W U K / )._. X'. X'. X_.).-.' t.l.l.d.' u 9 _.zXzXzXzXzXzXzXzXzXzXzXzXzXzXzX",
"zXzXzXzXzXzXzXzXzXzXzXzXzXzXzXzXzXzXzXw L Y U U P J w L ~ >._._._._._._._.).3.a ' j.g.@.} } u w )._._. X'. X X.XzXzXzXzX.X.XzXzX",
"zXzXzXzXzXzXzXzXzXzXzXzXzXzXzXzXzXzXzX1 > : 1 e q / :.>.`._.'._._._._._._.`.^ P Q ;.&.Q T s 8 P )._._._.'. X XzXzXzXzXzXzXzXzXzX",
"zXzXzXzXzXzXzXzXzXzXzXzXzXzXzXzXzXzXzXzXzXzX=.=.>.)._.'.'.'.zX X X'.'.'.'._.).3.P e 1 2 1 w ^ >.'. X X.XzXzXzXzXzXzXzXzXzXzXzXzX",
"zXzXzXzXzXzXzXzXzXzXzXzXzXzXzXzXzXzXzXzXzXzXzXzXzXzXzXzXzXzXzXzXzXzXzXzXzXzXzXzXzXzX:.:.:.>._..XzXzXzXzXzXzXzXzXzXzXzXzXzXzXzXzX"
};
