/* XPM */
static char *result[] = {
/* columns rows colors chars-per-pixel */
"60 60 74 1 ",
"  c #7C6038",
". c #83603A",
"X c #8C603A",
"o c #94603B",
"O c #9B603C",
"+ c #A3613D",
"@ c #AC613E",
"# c #B4613F",
"$ c #B9613F",
"% c #856740",
"& c #8B6740",
"* c #876840",
"= c #8C6A42",
"- c #946640",
"; c #9E6641",
": c #926B44",
"> c #936F48",
", c #9D6E48",
"< c #957049",
"1 c #9B744D",
"2 c #A46642",
"3 c #AD6542",
"4 c #A26A45",
"5 c #AC6945",
"6 c #AC6E49",
"7 c #B36542",
"8 c #BC6140",
"9 c #B36A46",
"0 c #BD6846",
"q c #B46B48",
"w c #BC6E4B",
"e c #A5744E",
"r c #A9744E",
"t c #A57650",
"y c #A67953",
"u c #AB7C55",
"i c #AF7F59",
"p c #B17551",
"a c #BD7652",
"s c #B37C57",
"d c #BC7955",
"f c #C16645",
"g c #C26847",
"h c #C56D4B",
"j c #C5704E",
"k c #C8704E",
"l c #C37653",
"z c #C97452",
"x c #C37A56",
"c c #CD7956",
"v c #C17F5A",
"b c #CC7D59",
"n c #D07D5B",
"m c #B4825B",
"M c #BD845E",
"N c #BE8761",
"B c #C6815C",
"V c #CF805C",
"C c #D0815D",
"Z c #C28762",
"A c #CB8662",
"S c #C18963",
"D c #CC8A65",
"F c #CC8F69",
"G c #D48461",
"H c #D58965",
"J c #D88A67",
"K c #D38E69",
"L c #DB8D6A",
"P c #D3926D",
"I c #DD926E",
"U c #DC9570",
"Y c #E09672",
"T c #E19874",
/* pixels */
"                                                            ",
"                                                            ",
"   .% %    . %                     .  .                     ",
"  =<<1>**&:><=*  %*<=X..X.XX    .XXX  XXX..  ... ....XXX.   ",
" X1mNNmmeerimy<X&:ere4;o+OOoX  XooOOOooOOooX.XoOOoOOOoOooo  ",
" <mFPFPNvvBKFNu,;5dxxwq3###+OoXO+#######@#@ooo@#$#$$$$##@o. ",
" 1NPUIUFblVIIFu1,6bnchg888$#OooO@#$$88$$$$@+oO@$$$$$$$$$@O. ",
".1SUTYIHbcbJIDs,29bbchf888$7+ooO#$888888$$#+OO@$8$888$$$#+X ",
"*1NUILJnckcCGBp425zckhf8$$$#+oo+#$$8888$$$#+oO@$88888888$+X ",
"%<NPLGnkhhzcca6;O3hhhf88$$$#Ooo+#$888888$$@+OO#$88888888$+X ",
" 1NFCckhgghkhq2O+50fff8888$#+ooO#$8888888$#+OO#$88888888#+X ",
".1MAbkgff8ff8#+oO28f888888$#+Oo+#88888888$#@OO#888888888#+X ",
" <sVzh8888888#+O++888f8888$@+oo+@$8888888$@OOO@888888888#O. ",
".>pljgf888888@+oO@78888888##+oo+#$888888$$@@oO@$8888888$#+X ",
" :6w0f$$8888$@+o+@$$888888##+ooO#$888888$$#OOO@$8888888$#+X ",
" X57$$8$8888$@OoO@$8888888$@Ooo+#888888$$$#+oo@$888888$$#+X ",
" .;7$8$$$$$$$@OoO+#$#$#$$$$@OoXO@$$$$#$$$#@ooO@$$$$$$$#$$+. ",
" XO+@3#@@@@@@OoooO@@@3@@#@@+OoXo+@@@@@@@@@OoooO@#$@###@@+o. ",
"  XoooooooOoooX..XoOOOOOooooXX.XoooOoOOoooXXXXoooooooooooo. ",
" ..XXXXXXXXXX.....XX.XoXXXX.. ...XoX.XoXXX.X. XXXoXXXoXXX.  ",
"   ...X......   . X......X.... ....X........  .... .......  ",
"   ......  ............  ............  ...XXX.......   ..   ",
"  XXXoXXX..XoooooooooXX...XXoooooXooX...XXooooooooXX..XXo.  ",
" XoO+OOoXXXO++++++O+OOoXXoO++++++O+OOXooo+@++++O++OXXXo+OX  ",
" XO+@@@OoXo+@@##@@#@@+OooO+##@@@@#@@+ooOO@@@@@$$@@@OoX+@@oX ",
" X+@###@oXO@$$$$$$$$$@Ooo+@$$$$$$$$@@OoO@#$$$$$8$$@+oo+$@OX ",
" X+#$$#@Oo+@$$$$888$$@Ooo+#$$$$8$8$#+OOO@$8$$$88$$@+oo@$@OX ",
" X+#$$$@OOO@$$$$8888$@+O;+#$8$888$$$+OO+#88$$$88$$@+oo@$#+X ",
" X+@$$#+Oo+@$8888888$@+O;+#88888888$@Oo+$8888888$$#+oo$$#+X ",
".X+##$8@ooO#$888888$$#OoO+$$8888888$#+oO@$888888$$$@oO#$$@X ",
".X+$$$$@Oo+@$$888888$#+OO@#$88888888+Oo+#$888888$$$+oo@$#OX ",
" X+$$88+oo+@$$888888$#+Oo+$88888888$@OoO@8$88888$$$+oX#$$OX ",
" X+$$$$@oo+##8888888$$+Xo+#$$$8888$$@OoO#$$$$888$8$+oX#8#+o ",
".X+#$$$+OoO$#888$$$$$#@oO+@$$$88$8$$@OO+#$$$8$88$$#Ooo@##OX ",
" o+##$$@ooO@@$$$$$$$#@+OO+#$$$$$$$$$@OoO@$$$$$$$$$#+oo@#$O. ",
" XO+#$#+ooO+######@$@@OXXO@####$#$$@@ooo@$########@OoX+#@o. ",
" Xo++@+OXXoO+++@@@+@@OoXXoO@@+@++@@OooXoO@+@@@+@@++oXX++Oo. ",
"  XoOoXX.XXXoOOooOoOooX.XXoooooOooooXXXXooooooOXoooX..oooX  ",
"  ..X..X......X...XX... ..XX.....X.X....X.X...X.X.X.. ....  ",
"       .   X      .      ..     .  .     ..   . ..    . .   ",
"   ............ .......X.X. .   .....XX..X .  .......XX..   ",
" .XXXooOooooooX..XoOoOooooooX..XoooooooooooX..ooooooooooo.  ",
" .o+@@@@#@@@+OoooO+@@@@@@@++oXXO+++@@#@+@++oXoO#@@@@@@@++o. ",
".XO@$$$$8$$##+Ooo+@$$$##$$#@OoX+@#$#$$$$$@++oo@$$#$$$$#$#+X ",
".XO#$$$$8$$$8@OoO@$#8888$$$@OXOO@$$$88$$$$@OoO@888888$$$$+X ",
" X+$$$8888$$8@OoO@$88888$$$#@oo+#$$$888$$$$+OO@888888$$$#+. ",
" X+#$$888888$@OOO@$8888888$#+oo+#$888888$$#+OO@8888888$$$+X ",
".X+#$8888888$#OOO@$8888888$@+OXO#888888$$$$@oo@8888888$$$+X ",
" X@$$88888888#+o+@$$8888888#OoX@@$888888$$#@OO#888888888$@. ",
" X+#$8888888$@OoO@$$888888$#+oo+#8888888$$#+OO@888888888$+X ",
" X+#88888888$@+OO@$$888888$#@OXO#$$88888$$#+OO@88$888888$+X ",
".X+888888888$#OOO@$$888888$#+oo@#$8888888$@OoO@888888888$+X ",
" X+$8888$88$$#+oO@$$8888$$$$@oX@$$$$$$$88$@@OO@$$$8$8888$+X ",
".X+#$$$$$$$$$@OoO+$$$$$$$$$@@oo+@$$$$$$$##@OoO@$$$$$888##O. ",
" .o+@@#@@@@#++oXoO@##@@@@#@@oXXX+@##@####@+OXo+##@####@@@o. ",
" .oO+O+++O+++oXXXoO+OO++O+OOoXXXo+OOOOOOOOooXXOOOOO+O+OOOX  ",
"  .XXXXoXXoXXX....XXXoXoXXXX....XXooX.XoXXX...XXooXXXoXXX.  ",
"   .  .....     ....  ... ..     . .   ... .   .... . ...   ",
"                                                            ",
"                                                            "
};
